<?xml version="1.0" standalone="no"?>
<!DOCTYPE svg PUBLIC "-//W3C//DTD SVG 20010904//EN"
 "http://www.w3.org/TR/2001/REC-SVG-20010904/DTD/svg10.dtd">
<svg version="1.0" xmlns="http://www.w3.org/2000/svg"
 width="260.000000pt" height="260.000000pt" viewBox="0 0 260.000000 260.000000"
 preserveAspectRatio="xMidYMid meet">
<metadata>
Created by potrace 1.14, written by Peter Selinger 2001-2017
</metadata>
<g transform="translate(0.000000,260.000000) scale(0.100000,-0.100000)"
fill="#000000" stroke="none">
<path d="M1045 2550 c-187 -38 -376 -123 -525 -239 -141 -109 -310 -321 -380
-475 -102 -227 -138 -499 -100 -739 88 -549 542 -992 1088 -1062 l27 -3 -1
1262 c-1 693 -2 1264 -3 1269 -1 9 3 9 -106 -13z"/>
<path d="M1451 2069 l0 -500 277 142 c152 78 354 182 449 230 l172 89 -60 74
c-113 141 -259 257 -426 340 -95 47 -250 100 -323 110 -25 3 -55 8 -67 10
l-22 5 0 -500z"/>
<path d="M2410 1729 c-41 -22 -212 -110 -380 -196 -512 -262 -560 -287 -552
-294 4 -4 129 -46 277 -94 149 -48 358 -115 465 -150 107 -34 218 -70 246 -78
l52 -15 5 26 c3 15 12 57 21 93 30 130 39 277 25 406 -7 65 -11 89 -24 158 -7
31 -55 186 -58 184 -1 0 -36 -19 -77 -40z"/>
<path d="M1451 480 c1 -414 2 -450 17 -446 10 3 35 8 57 11 68 9 81 13 191 50
188 64 329 152 473 294 54 53 121 128 149 168 l52 72 -253 81 c-138 45 -319
104 -402 130 -235 76 -278 90 -281 90 -2 0 -3 -203 -3 -450z"/>
</g>
</svg>
