<?xml version="1.0" encoding="utf-8"?>
<!-- Generator: Adobe Illustrator 15.1.0, SVG Export Plug-In  -->
<!DOCTYPE svg PUBLIC "-//W3C//DTD SVG 1.1//EN" "http://www.w3.org/Graphics/SVG/1.1/DTD/svg11.dtd" [
	<!ENTITY ns_flows "http://ns.adobe.com/Flows/1.0/">
]>
<svg version="1.1"
	 xmlns="http://www.w3.org/2000/svg" xmlns:xlink="http://www.w3.org/1999/xlink" xmlns:a="http://ns.adobe.com/AdobeSVGViewerExtensions/3.0/"
	 x="0px" y="0px" width="153px" height="29px" viewBox="0 0 153 29" enable-background="new 0 0 153 29" xml:space="preserve">
<defs>
</defs>
<path fill="#0176BC" d="M14.615,0h121.653c8.037,0,14.613,6.14,14.613,13.643v1.573c0,7.5-6.576,13.64-14.613,13.64H14.615
	C6.577,28.855,0,22.716,0,15.216v-1.573C0,6.14,6.577,0,14.615,0"/>
<rect x="88.838" y="11.03" fill="#B0D235" width="1.746" height="7.614"/>
<path fill="#B0D235" d="M108.99,11.03h-9.053v7.614h9.051c0.466,0,0.847-0.358,0.847-0.797v-6.018
	C109.834,11.389,109.456,11.03,108.99,11.03 M108.145,16.862h-6.438v-1.154h6.438V16.862z M108.145,13.926h-6.438V12.77h6.438
	V13.926z"/>
<path fill="#B0D235" d="M85.24,16.751h-6.336v-5.745h-1.825V16.2c0,0.203,0.026,0.406,0.084,0.605
	c0.06,0.199,0.137,0.391,0.235,0.574c0.101,0.186,0.218,0.355,0.355,0.514c0.137,0.156,0.283,0.294,0.443,0.407
	c0.16,0.115,0.328,0.205,0.506,0.271c0.178,0.065,0.357,0.098,0.537,0.098h5.768c0.521,0,1.418,0.002,2.08,0.002
	c0-0.864,0.004-1.681,0.004-2.231v-5.434H85.24V16.751L85.24,16.751z"/>
<polygon fill="#B0D235" points="97.012,13.95 91.18,13.95 91.18,15.69 97.012,15.69 97.012,18.645 98.781,18.645 98.781,11.03 
	97.012,11.03 "/>
<path fill="#B0D235" d="M132.402,12.428c-0.125-0.293-0.295-0.545-0.506-0.756c-0.211-0.213-0.455-0.379-0.731-0.494
	c-0.276-0.115-0.565-0.176-0.867-0.176h-7.133v1.957h1.729h0.332h5.655v0.973h-5.655h-0.332h-1.729v4.744h1.729v-2.837h5.596
	c0.281,0,0.549-0.064,0.805-0.191c0.254-0.127,0.477-0.301,0.67-0.523c0.189-0.221,0.344-0.48,0.457-0.775
	c0.113-0.297,0.17-0.614,0.17-0.954C132.59,13.045,132.527,12.721,132.402,12.428"/>
<polygon fill="#B0D235" points="113.297,15.696 121.6,15.696 121.6,13.958 113.297,13.958 113.297,12.758 121.6,12.758 121.6,11.03 
	113.297,11.03 113.122,11.03 111.549,11.03 111.549,18.645 113.122,18.645 113.297,18.645 121.605,18.645 121.605,16.87 
	113.297,16.87 "/>
<path fill="#FFF200" d="M42.872,18.658v-5.742h7.091v5.742h2.07v-5.431c0-0.186-0.031-0.371-0.096-0.553
	c-0.063-0.184-0.148-0.357-0.258-0.521c-0.107-0.162-0.236-0.316-0.387-0.459s-0.311-0.264-0.486-0.367
	c-0.172-0.104-0.354-0.186-0.541-0.244s-0.375-0.09-0.564-0.09h-6.455c-0.203,0-0.402,0.035-0.602,0.102
	c-0.197,0.064-0.385,0.154-0.564,0.271c-0.18,0.113-0.346,0.252-0.498,0.408c-0.154,0.156-0.285,0.326-0.398,0.512
	c-0.111,0.184-0.199,0.375-0.262,0.576c-0.064,0.197-0.096,0.402-0.096,0.604v5.193L42.872,18.658L42.872,18.658z"/>
<path fill="#FFF200" d="M63.049,11.018v1.92h-8.125v3.815h8.125v1.909h-7.642c-0.291,0-0.574-0.055-0.85-0.166
	c-0.276-0.111-0.52-0.266-0.736-0.464c-0.215-0.197-0.389-0.434-0.52-0.709c-0.131-0.275-0.195-0.576-0.195-0.908V13.84
	c0-0.955,0.223-1.666,0.67-2.129c0.445-0.463,1.107-0.693,1.98-0.693H63.049z"/>
<path fill="#FFF200" d="M31.967,13.92h0.331h5.655v-0.975h-5.655h-0.331h-1.73V10.99h7.133c0.302,0,0.591,0.059,0.868,0.176
	c0.277,0.115,0.519,0.281,0.732,0.492c0.211,0.213,0.381,0.465,0.506,0.758c0.125,0.291,0.186,0.615,0.186,0.967
	c0,0.338-0.055,0.656-0.17,0.954c-0.111,0.295-0.266,0.553-0.459,0.775c-0.189,0.223-0.414,0.396-0.667,0.522
	c-0.254,0.127-0.521,0.189-0.802,0.189h-5.596v2.839h-1.73V13.92H31.967z"/>
<rect x="43.563" y="13.938" fill="#FFF200" width="5.734" height="1.741"/>
<path fill="#FFF200" d="M20.943,11.018h-1.804v7.615h1.804V11.018z M23.411,14.647l5.987,3.636l-0.817,1.365l-6.494-3.944
	c-0.946-0.473-0.935-1.573-0.025-2.038l6.053-3.863l0.878,1.344L23.411,14.647z"/>
<path fill="#FFF200" d="M66.594,11.018h-1.805v7.615h1.805V11.018z M69.063,14.647l5.985,3.636l-0.816,1.365l-6.495-3.944
	c-0.932-0.463-0.934-1.573-0.025-2.038l6.053-3.863l0.879,1.344L69.063,14.647z"/>
<rect x="43.563" y="13.938" fill="#FFF200" width="5.734" height="1.741"/>
</svg>
