<?xml version="1.0" encoding="utf-8"?>
<!-- Generator: Adobe Illustrator 15.1.0, SVG Export Plug-In  -->
<!DOCTYPE svg PUBLIC "-//W3C//DTD SVG 1.1//EN" "http://www.w3.org/Graphics/SVG/1.1/DTD/svg11.dtd" [
	<!ENTITY ns_flows "http://ns.adobe.com/Flows/1.0/">
]>
<svg version="1.1"
	 xmlns="http://www.w3.org/2000/svg" xmlns:xlink="http://www.w3.org/1999/xlink" xmlns:a="http://ns.adobe.com/AdobeSVGViewerExtensions/3.0/"
	 x="0px" y="0px" width="43px" viewBox="-3 -3 43 41" enable-background="new -3 -3 43 41" xml:space="preserve">
<defs>
</defs>
<path fill-rule="evenodd" clip-rule="evenodd" fill="#0176BC" d="M0,18.219V16.48c0-1.493,1.215-2.709,2.708-2.709h21.771
	l-7.92-7.917c-1.056-1.057-1.056-2.774,0-3.832l1.229-1.23c1.053-1.055,2.776-1.055,3.831,0L35.646,14.82l0.06,0.059l0.06,0.065
	l0.054,0.065l0,0l0.057,0.065l0.027,0.033l0.027,0.032l0,0l0.027,0.035l0.024,0.035l0.048,0.067l0.052,0.073l0.024,0.032
	l0.022,0.038l0,0l0.024,0.038l0.024,0.038l0.022,0.035l0.021,0.038l0,0l0.021,0.035l0.022,0.041l0,0l0.019,0.035l0.019,0.038
	l0.038,0.081l0.038,0.076l0.035,0.081l0.035,0.082l0.014,0.041l0.014,0.041l0,0l0.016,0.041l0.016,0.043l0.027,0.084l0.024,0.084
	l0.024,0.086l0.019,0.084l0.019,0.089l0.016,0.087l0.011,0.043l0.005,0.046l0,0l0.005,0.043l0.005,0.046l0.011,0.089l0.011,0.092
	l0.005,0.092v0.089l0.005,0.092L36.69,17.44v0.093l-0.005,0.09l-0.011,0.091l-0.011,0.09l-0.005,0.045l-0.005,0.043v0.001
	l-0.005,0.043l-0.011,0.043L36.62,18.07l-0.019,0.086l-0.019,0.086l-0.024,0.085l-0.024,0.085l-0.027,0.083l-0.016,0.042
	l-0.016,0.041l0,0l-0.014,0.041l-0.014,0.042l-0.035,0.08l-0.035,0.08l-0.038,0.08L36.3,18.977l-0.019,0.039l-0.019,0.038l0,0
	l-0.022,0.039l-0.021,0.037l0,0l-0.021,0.037l-0.022,0.038l-0.024,0.037l-0.024,0.037l0,0l-0.022,0.035l-0.024,0.036l-0.052,0.07
	l-0.048,0.07l-0.024,0.034l-0.027,0.034l0,0l-0.027,0.034l-0.027,0.034l-0.057,0.065l0,0l-0.054,0.063l-0.06,0.064l-0.06,0.061
	l-14.028,14.03c-1.055,1.055-2.777,1.055-3.831,0l-1.229-1.23c-1.056-1.055-1.056-2.774,0-3.829l7.92-7.923H2.708
	C1.215,20.925,0,19.71,0,18.219z"/>
</svg>
