<?xml version="1.0" encoding="utf-8"?>
<!-- Generator: Adobe Illustrator 15.1.0, SVG Export Plug-In  -->
<!DOCTYPE svg PUBLIC "-//W3C//DTD SVG 1.1//EN" "http://www.w3.org/Graphics/SVG/1.1/DTD/svg11.dtd" [
	<!ENTITY ns_flows "http://ns.adobe.com/Flows/1.0/">
]>
<svg version="1.1"
	 xmlns="http://www.w3.org/2000/svg" xmlns:xlink="http://www.w3.org/1999/xlink" xmlns:a="http://ns.adobe.com/AdobeSVGViewerExtensions/3.0/"
	 x="0px" y="0px" width="260px" viewBox="-44.758 -52.57 260 260" enable-background="new -44.758 -52.57 260 260"
	 xml:space="preserve">
<defs>
</defs>
<path fill-rule="evenodd" clip-rule="evenodd" d="M133.24,124.284h26.779c1.592,0,2.893,1.293,2.893,2.893l0,0
	c0,1.594-1.301,2.896-2.893,2.896H133.24c-1.592,0-2.893-1.303-2.893-2.896l0,0C130.347,125.577,131.648,124.284,133.24,124.284
	L133.24,124.284z M133.24,140.842h26.779c1.592,0,2.893,1.303,2.893,2.906l0,0c0,1.588-1.301,2.891-2.893,2.891H133.24
	c-1.592,0-2.893-1.303-2.893-2.891l0,0C130.347,142.145,131.648,140.842,133.24,140.842L133.24,140.842z M74.248,124.284h26.77
	c1.592,0,2.901,1.293,2.901,2.893l0,0c0,1.594-1.31,2.896-2.901,2.896h-26.77c-1.592,0-2.902-1.303-2.902-2.896l0,0
	C71.346,125.577,72.646,124.284,74.248,124.284L74.248,124.284z M74.248,140.842h26.77c1.592,0,2.901,1.303,2.901,2.906l0,0
	c0,1.588-1.31,2.891-2.901,2.891h-26.77c-1.592,0-2.902-1.303-2.902-2.891l0,0C71.346,142.145,72.646,140.842,74.248,140.842
	L74.248,140.842z M14.248,124.284h26.77c1.602,0,2.902,1.293,2.902,2.893l0,0c0,1.594-1.31,2.896-2.902,2.896h-26.77
	c-1.591,0-2.904-1.303-2.904-2.896l0,0C11.343,125.577,12.646,124.284,14.248,124.284L14.248,124.284z M14.248,140.842h26.77
	c1.602,0,2.902,1.303,2.902,2.906l0,0c0,1.588-1.31,2.891-2.902,2.891h-26.77c-1.591,0-2.904-1.303-2.904-2.891l0,0
	C11.343,142.145,12.646,140.842,14.248,140.842L14.248,140.842z M9.179,151.51h36.895v-32.107H9.179V151.51L9.179,151.51z
	 M47.636,160.7c2.105,0,4.017-0.859,5.392-2.24c1.375-1.371,2.238-3.287,2.238-5.385v-35.221c0-2.102-0.863-4.021-2.238-5.395
	c-1.384-1.381-3.287-2.244-5.392-2.244H7.63c-2.093,0-4.007,0.863-5.392,2.244C0.864,113.833,0,115.752,0,117.854v35.221
	c0,2.098,0.864,4.014,2.238,5.385c1.384,1.381,3.289,2.24,5.392,2.24H47.636L47.636,160.7z M128.183,151.51h36.895v-32.107h-36.895
	V151.51L128.183,151.51z M166.64,160.7c2.092,0,4.004-0.859,5.379-2.24c1.387-1.371,2.238-3.287,2.238-5.385v-35.221
	c0-2.102-0.852-4.021-2.238-5.395c-1.375-1.381-3.287-2.244-5.379-2.244h-40.01c-2.102,0-4.017,0.863-5.389,2.244
	c-1.377,1.373-2.238,3.293-2.238,5.395v35.221c0,2.098,0.861,4.014,2.238,5.385c1.372,1.381,3.287,2.24,5.389,2.24H166.64
	L166.64,160.7z M69.192,151.51h36.885v-32.107H69.192V151.51L69.192,151.51z M107.638,160.7c2.103,0,4.005-0.859,5.389-2.24
	c1.375-1.371,2.238-3.287,2.238-5.385v-35.221c0-2.102-0.863-4.021-2.238-5.395c-1.384-1.381-3.286-2.244-5.389-2.244H67.64
	c-2.112,0-4.017,0.863-5.402,2.244c-1.374,1.373-2.238,3.293-2.238,5.395v35.221c0,2.098,0.864,4.014,2.238,5.385
	c1.385,1.381,3.29,2.24,5.402,2.24H107.638L107.638,160.7z"/>
<path fill-rule="evenodd" clip-rule="evenodd" d="M133.24,69.278h26.779c1.592,0,2.893,1.293,2.893,2.896l0,0
	c0,1.59-1.301,2.893-2.893,2.893H133.24c-1.592,0-2.893-1.303-2.893-2.893l0,0C130.347,70.571,131.648,69.278,133.24,69.278
	L133.24,69.278z M133.24,85.84h26.779c1.592,0,2.893,1.297,2.893,2.902l0,0c0,1.588-1.301,2.891-2.893,2.891H133.24
	c-1.592,0-2.893-1.303-2.893-2.891l0,0C130.347,87.137,131.648,85.84,133.24,85.84L133.24,85.84z M74.248,69.278h26.77
	c1.592,0,2.901,1.293,2.901,2.896l0,0c0,1.59-1.31,2.893-2.901,2.893h-26.77c-1.592,0-2.902-1.303-2.902-2.893l0,0
	C71.346,70.571,72.646,69.278,74.248,69.278L74.248,69.278z M74.248,85.84h26.77c1.592,0,2.901,1.297,2.901,2.902l0,0
	c0,1.588-1.31,2.891-2.901,2.891h-26.77c-1.592,0-2.902-1.303-2.902-2.891l0,0C71.346,87.137,72.646,85.84,74.248,85.84
	L74.248,85.84z M14.248,69.278h26.77c1.602,0,2.902,1.293,2.902,2.896l0,0c0,1.59-1.31,2.893-2.902,2.893h-26.77
	c-1.591,0-2.904-1.303-2.904-2.893l0,0C11.343,70.571,12.646,69.278,14.248,69.278L14.248,69.278z M14.248,85.84h26.77
	c1.602,0,2.902,1.297,2.902,2.902l0,0c0,1.588-1.31,2.891-2.902,2.891h-26.77c-1.591,0-2.904-1.303-2.904-2.891l0,0
	C11.343,87.137,12.646,85.84,14.248,85.84L14.248,85.84z M9.179,96.504h36.895V64.397H9.179V96.504L9.179,96.504z M47.636,105.694
	c2.105,0,4.017-0.859,5.392-2.236c1.375-1.371,2.238-3.285,2.238-5.389V62.848c0-2.103-0.863-4.017-2.238-5.394
	c-1.384-1.382-3.287-2.246-5.392-2.246H7.63c-2.093,0-4.007,0.864-5.392,2.246C0.864,58.831,0,60.745,0,62.848v35.221
	c0,2.104,0.864,4.018,2.238,5.389c1.384,1.377,3.289,2.236,5.392,2.236H47.636L47.636,105.694z M128.183,96.504h36.895V64.397
	h-36.895V96.504L128.183,96.504z M166.64,105.694c2.092,0,4.004-0.859,5.379-2.236c1.387-1.371,2.238-3.285,2.238-5.389V62.848
	c0-2.103-0.852-4.017-2.238-5.394c-1.375-1.382-3.287-2.246-5.379-2.246h-40.01c-2.102,0-4.017,0.864-5.389,2.246
	c-1.377,1.377-2.238,3.291-2.238,5.394v35.221c0,2.104,0.861,4.018,2.238,5.389c1.372,1.377,3.287,2.236,5.389,2.236H166.64
	L166.64,105.694z M69.192,96.504h36.885V64.397H69.192V96.504L69.192,96.504z M107.638,105.694c2.103,0,4.005-0.859,5.389-2.236
	c1.375-1.371,2.238-3.285,2.238-5.389V62.848c0-2.103-0.863-4.017-2.238-5.394c-1.384-1.382-3.286-2.246-5.389-2.246H67.64
	c-2.112,0-4.017,0.864-5.402,2.246C60.864,58.831,60,60.745,60,62.848v35.221c0,2.104,0.864,4.018,2.238,5.389
	c1.385,1.377,3.29,2.236,5.402,2.236H107.638L107.638,105.694z"/>
<path fill-rule="evenodd" clip-rule="evenodd" d="M133.24,14.069h26.779c1.592,0,2.893,1.293,2.893,2.897l0,0
	c0,1.594-1.301,2.892-2.893,2.892H133.24c-1.592,0-2.893-1.298-2.893-2.892l0,0C130.347,15.362,131.648,14.069,133.24,14.069
	L133.24,14.069z M133.24,30.632h26.779c1.592,0,2.893,1.298,2.893,2.901l0,0c0,1.59-1.301,2.897-2.893,2.897H133.24
	c-1.592,0-2.893-1.308-2.893-2.897l0,0C130.347,31.93,131.648,30.632,133.24,30.632L133.24,30.632z M74.248,14.069h26.77
	c1.592,0,2.901,1.293,2.901,2.897l0,0c0,1.594-1.31,2.892-2.901,2.892h-26.77c-1.592,0-2.902-1.298-2.902-2.892l0,0
	C71.346,15.362,72.646,14.069,74.248,14.069L74.248,14.069z M74.248,30.632h26.77c1.592,0,2.901,1.298,2.901,2.901l0,0
	c0,1.59-1.31,2.897-2.901,2.897h-26.77c-1.592,0-2.902-1.308-2.902-2.897l0,0C71.346,31.93,72.646,30.632,74.248,30.632
	L74.248,30.632z M14.248,14.069h26.77c1.602,0,2.902,1.293,2.902,2.897l0,0c0,1.594-1.31,2.892-2.902,2.892h-26.77
	c-1.591,0-2.904-1.298-2.904-2.892l0,0C11.343,15.362,12.646,14.069,14.248,14.069L14.248,14.069z M14.248,30.632h26.77
	c1.602,0,2.902,1.298,2.902,2.901l0,0c0,1.59-1.31,2.897-2.902,2.897h-26.77c-1.591,0-2.904-1.308-2.904-2.897l0,0
	C11.343,31.93,12.646,30.632,14.248,30.632L14.248,30.632z M9.179,41.297h36.895V9.189H9.179V41.297L9.179,41.297z M47.636,50.485
	c2.105,0,4.017-0.858,5.392-2.235c1.375-1.372,2.238-3.287,2.238-5.389V7.64c0-2.103-0.863-4.018-2.238-5.395
	C51.643,0.863,49.741,0,47.636,0H7.63C5.537,0,3.623,0.863,2.238,2.245C0.864,3.622,0,5.537,0,7.64v35.222
	c0,2.102,0.864,4.017,2.238,5.389c1.384,1.377,3.289,2.235,5.392,2.235H47.636L47.636,50.485z M128.183,41.297h36.895V9.189h-36.895
	V41.297L128.183,41.297z M166.64,50.485c2.092,0,4.004-0.858,5.379-2.235c1.387-1.372,2.238-3.287,2.238-5.389V7.64
	c0-2.103-0.852-4.018-2.238-5.395C170.644,0.863,168.732,0,166.64,0h-40.01c-2.102,0-4.017,0.863-5.389,2.245
	c-1.377,1.377-2.238,3.292-2.238,5.395v35.222c0,2.102,0.861,4.017,2.238,5.389c1.372,1.377,3.287,2.235,5.389,2.235H166.64
	L166.64,50.485z M69.192,41.297h36.885V9.189H69.192V41.297L69.192,41.297z M107.638,50.485c2.103,0,4.005-0.858,5.389-2.235
	c1.375-1.372,2.238-3.287,2.238-5.389V7.64c0-2.103-0.863-4.018-2.238-5.395C111.643,0.863,109.741,0,107.638,0H67.64
	c-2.112,0-4.017,0.863-5.402,2.245C60.864,3.622,60,5.537,60,7.64v35.222c0,2.102,0.864,4.017,2.238,5.389
	c1.385,1.377,3.29,2.235,5.402,2.235H107.638L107.638,50.485z"/>
</svg>
