<?xml version="1.0" encoding="utf-8"?>
<!-- Generator: Adobe Illustrator 15.1.0, SVG Export Plug-In  -->
<!DOCTYPE svg PUBLIC "-//W3C//DTD SVG 1.1//EN" "http://www.w3.org/Graphics/SVG/1.1/DTD/svg11.dtd" [
	<!ENTITY ns_flows "http://ns.adobe.com/Flows/1.0/">
]>
<svg version="1.1"
	 xmlns="http://www.w3.org/2000/svg" xmlns:xlink="http://www.w3.org/1999/xlink" xmlns:a="http://ns.adobe.com/AdobeSVGViewerExtensions/3.0/"
	 x="0px" y="0px" width="260px" viewBox="-47.348 -51.83 260 260" enable-background="new -47.348 -51.83 260 260"
	 xml:space="preserve">
<defs>
</defs>
<path fill-rule="evenodd" clip-rule="evenodd" d="M34.128,97.561l-33.69,58.368c-0.584,1.01-0.584,2.168,0,3.189
	c0.585,1.011,1.584,1.581,2.753,1.581h67.403c1.169,0,2.168-0.57,2.753-1.581c0.597-1.021,0.597-2.18,0-3.189L39.658,97.561
	c-0.585-1.012-1.596-1.595-2.765-1.595C35.723,95.966,34.725,96.549,34.128,97.561L34.128,97.561z M152.59,62.142l7.905-13.713
	l7.916-13.715c0.89-1.547,0.89-3.314,0-4.859l-7.916-13.715L152.59,2.436C151.689,0.889,150.154,0,148.375,0h-15.833h-15.833
	c-1.779,0-3.314,0.889-4.215,2.436l-7.905,13.703l-7.93,13.715c-0.889,1.545-0.889,3.312,0,4.859l7.93,13.715l7.905,13.713
	c0.9,1.547,2.436,2.423,4.215,2.423h15.833h15.833C150.154,64.565,151.689,63.689,152.59,62.142L152.59,62.142z M132.542,95.966
	c17.88,0,32.373,14.493,32.373,32.372c0,17.88-14.493,32.361-32.373,32.361s-32.376-14.481-32.376-32.361
	C100.166,110.459,114.662,95.966,132.542,95.966L132.542,95.966z M66.551,64.737H7.247c-1.498,0-2.728-1.206-2.728-2.705V2.729
	C4.519,1.218,5.749,0,7.247,0h59.305c1.485,0,2.715,1.218,2.715,2.729v59.303C69.267,63.531,68.037,64.737,66.551,64.737z"/>
</svg>
