<?xml version="1.0" encoding="utf-8"?>
<!-- Generator: Adobe Illustrator 15.1.0, SVG Export Plug-In  -->
<!DOCTYPE svg PUBLIC "-//W3C//DTD SVG 1.1//EN" "http://www.w3.org/Graphics/SVG/1.1/DTD/svg11.dtd" [
	<!ENTITY ns_flows "http://ns.adobe.com/Flows/1.0/">
]>
<svg version="1.1" x="0px" y="0px" width="50px" height="50px" viewBox="0 0 50 50" enable-background="new 0 0 50 50" xml:space="preserve">
<defs>
</defs>
<path fill-rule="evenodd" clip-rule="evenodd" d="M50,48.396c0-1.065,0-2.128,0-3.197c0-2.177-2.313-3.603-5.318-4.261
	c-0.939,3.696-1.813,4.954-3.319,7.874l-0.552-4.863c-0.014-0.107,0.021-0.201,0.074-0.298l0.564-1.059
	c0.041-0.064,0.041-0.135,0.007-0.195c-0.033-0.067-0.094-0.102-0.168-0.102c-0.564,0-1.136,0-1.701,0
	c-0.073,0-0.134,0.034-0.168,0.102c-0.04,0.061-0.033,0.131,0,0.195l0.571,1.059c0.054,0.097,0.081,0.19,0.074,0.298l-0.544,4.77
	c-1.473-2.854-2.34-4.124-3.268-7.784c-3.012,0.662-5.323,2.084-5.323,4.265c0.007,1.069,0.007,2.132,0.007,3.197
	c0,0.884,0.718,1.604,1.599,1.604c5.291,0,10.575,0,15.864,0C49.28,50,50,49.28,50,48.396L50,48.396z M40.468,39.066
	c-1.271,0-2.541-0.878-3.489-2.169c-0.928-1.267-1.56-2.943-1.56-4.57v-0.041l0.007-0.02c-0.007-0.107-0.007-0.215-0.007-0.323
	c0-3.898-0.672-7.058,5.049-7.058c5.714,0,5.041,3.159,5.041,7.058c0,0.108,0,0.216-0.007,0.323l0.007,0.02v0.041
	c0,1.627-0.632,3.304-1.56,4.57C43.002,38.188,41.731,39.066,40.468,39.066L40.468,39.066z M37.55,36.481
	c0.82,1.115,1.89,1.875,2.918,1.875c1.022,0,2.091-0.76,2.911-1.875c0.839-1.143,1.411-2.656,1.417-4.117l-0.282-1.159
	c-0.107-0.417-0.114-0.8-0.121-1.17c-0.006-0.484-0.02-0.932-0.289-1.294c-0.422-0.589-1.095-0.396-1.881-0.171
	c-0.538,0.15-1.123,0.315-1.755,0.315c-0.639,0-1.224-0.165-1.761-0.315l0,0c-0.787-0.226-1.459-0.418-1.89,0.171
	c-0.262,0.362-0.269,0.81-0.282,1.294c-0.007,0.37-0.014,0.753-0.114,1.17l-0.289,1.159C36.139,33.825,36.71,35.338,37.55,36.481
	L37.55,36.481z M9.539,14.18c-1.27,0-2.541-0.877-3.482-2.165c-0.935-1.271-1.56-2.947-1.56-4.574V7.401v-0.02
	c0-0.104-0.007-0.212-0.007-0.323C4.491,3.159,3.825,0,9.539,0c5.714,0,5.042,3.159,5.042,7.058c0,0.111,0,0.215-0.007,0.323
	l0.007,0.02v0.041c0,1.627-0.632,3.304-1.56,4.574C12.073,13.303,10.803,14.18,9.539,14.18L9.539,14.18z M6.628,11.595
	c0.813,1.116,1.882,1.876,2.911,1.876c1.028,0,2.091-0.76,2.911-1.876c0.84-1.143,1.411-2.655,1.418-4.117l-0.282-1.16
	c-0.107-0.417-0.114-0.8-0.121-1.173c-0.007-0.48-0.021-0.924-0.282-1.294c-0.431-0.585-1.103-0.397-1.89-0.168
	C10.756,3.834,10.171,4,9.539,4C8.901,4,8.323,3.834,7.785,3.683H7.778C6.992,3.455,6.319,3.267,5.896,3.852
	C5.633,4.221,5.62,4.668,5.607,5.149C5.6,5.519,5.593,5.902,5.493,6.319l-0.289,1.16C5.209,8.94,5.782,10.453,6.628,11.595
	L6.628,11.595z M19.071,23.514v-3.199c0-2.178-2.313-3.604-5.317-4.266c-0.935,3.661-1.802,4.931-3.274,7.781l-0.537-4.766
	c-0.014-0.107,0.014-0.202,0.067-0.303l0.571-1.055c0.033-0.064,0.04-0.135,0.007-0.199c-0.041-0.063-0.102-0.097-0.168-0.097
	c-0.572,0-1.136,0-1.708,0c-0.067,0-0.135,0.034-0.168,0.097c-0.034,0.064-0.027,0.135,0.007,0.199l0.571,1.055
	c0.054,0.101,0.081,0.195,0.067,0.303l-0.552,4.863c-1.506-2.92-2.373-4.178-3.314-7.878C2.313,16.714,0,18.136,0,20.314
	c0,1.069,0,2.13,0,3.199c0,0.881,0.727,1.597,1.601,1.597c5.29,0,10.58,0,15.864,0C18.352,25.11,19.071,24.395,19.071,23.514
	L19.071,23.514z M21.907,42.172c0.074,0.002,0.135,0.029,0.175,0.087c0.041,0.058,0.054,0.12,0.041,0.188l-0.477,2.136
	c-0.027,0.092,0.014,0.186,0.087,0.239c0.081,0.054,0.174,0.054,0.255-0.007c2.165-1.532,4.336-3.064,6.515-4.591
	c0.061-0.043,0.094-0.107,0.094-0.182s-0.033-0.141-0.094-0.182l-6.521-4.591c-0.074-0.058-0.174-0.058-0.249-0.007
	c-0.08,0.057-0.114,0.148-0.094,0.238l0.477,2.139c0.02,0.066,0.007,0.131-0.034,0.188c-0.047,0.057-0.107,0.088-0.175,0.088
	c-0.779,0.01-1.525,0.077-2.285,0.077c-5.088,0-5.331-0.132-8.739-3.489c-0.074,6.191,3.18,7.597,8.739,7.597
	C20.382,42.101,21.148,42.148,21.907,42.172L21.907,42.172z M28.093,10.274c-0.067-0.003-0.128-0.03-0.175-0.087
	c-0.041-0.057-0.054-0.121-0.041-0.188l0.484-2.138c0.021-0.094-0.014-0.185-0.094-0.238c-0.074-0.054-0.175-0.051-0.249,0.003
	c-2.172,1.533-4.343,3.069-6.521,4.595c-0.061,0.043-0.094,0.107-0.094,0.182c0,0.074,0.033,0.138,0.094,0.181l6.521,4.591
	c0.081,0.057,0.175,0.057,0.256,0.003c0.08-0.054,0.107-0.145,0.087-0.239l-0.478-2.134c-0.014-0.071-0.007-0.135,0.041-0.192
	c0.04-0.054,0.101-0.081,0.168-0.084c0.779-0.01,1.525-0.077,2.292-0.077c5.081,0,5.323,0.131,8.731,3.485
	c0.055-4.507-1.754-7.593-7.677-7.593C30.317,10.345,29.222,10.312,28.093,10.274z"/>
</svg>
