<?xml version="1.0" encoding="utf-8"?>
<!-- Generator: Adobe Illustrator 15.1.0, SVG Export Plug-In  -->
<!DOCTYPE svg PUBLIC "-//W3C//DTD SVG 1.1//EN" "http://www.w3.org/Graphics/SVG/1.1/DTD/svg11.dtd" [
	<!ENTITY ns_flows "http://ns.adobe.com/Flows/1.0/">
]>
<svg
	 x="0px" y="0px" width="50px" height="50px" viewBox="0.001 -1.196 50 50" enable-background="new 0.001 -1.196 50 50"
	 xml:space="preserve">
<defs>
</defs>
<path d="M25.022,23.895c-2.133,0-4.273-1.48-5.868-3.648
	c-1.569-2.137-2.633-4.971-2.633-7.71v-0.064l0.006-0.032c-0.006-0.182-0.006-0.365-0.006-0.551C16.521,5.323,15.388,0,25.022,0
	c9.629,0,8.502,5.323,8.502,11.89c0,0.186-0.008,0.365-0.014,0.551l0.014,0.032v0.064c0,2.739-1.064,5.57-2.633,7.707
	C29.296,22.415,27.155,23.895,25.022,23.895L25.022,23.895z M39.872,24.875c1.377,0,2.762-0.955,3.799-2.361
	c1.012-1.387,1.697-3.219,1.697-4.994v-0.038l-0.006-0.026c0.006-0.115,0.014-0.234,0.014-0.352c0-3.831,0.588-7.008-3.852-7.598
	c-0.486-0.096-1.037-0.154-1.652-0.154c-0.621,0-1.166,0.054-1.646,0.147c-4.459,0.59-3.863,3.767-3.863,7.604
	c0,0.118,0,0.237,0.008,0.355l-0.008,0.022v0.038c0,1.775,0.686,3.607,1.705,4.994C37.099,23.92,38.489,24.875,39.872,24.875
	L39.872,24.875z M36.688,22.056c-0.916-1.249-1.537-2.896-1.551-4.491l0.314-1.268c0.115-0.455,0.121-0.878,0.127-1.278
	c0.014-0.522,0.027-1.012,0.314-1.409c0.219-0.689,7.881-0.705,7.951,0c0.287,0.397,0.295,0.884,0.307,1.409
	c0.014,0.4,0.02,0.823,0.129,1.278l0.32,1.268c-0.014,1.595-0.635,3.242-1.557,4.491c-0.891,1.217-2.057,2.044-3.172,2.044
	C38.745,24.1,37.585,23.273,36.688,22.056L36.688,22.056z M10.186,24.875c1.384,0,2.768-0.955,3.799-2.361
	c1.019-1.387,1.704-3.219,1.704-4.994v-0.038l-0.006-0.026c0.006-0.115,0.006-0.234,0.006-0.352c0-3.87,0.609-7.076-3.991-7.617
	c-0.461-0.086-0.98-0.134-1.563-0.134c-0.66,0-1.237,0.064-1.749,0.169c-4.286,0.644-3.703,3.792-3.703,7.582
	c0,0.118,0,0.237,0.006,0.355l-0.006,0.022v0.038c0,1.775,0.685,3.607,1.704,4.994C7.418,23.92,8.802,24.875,10.186,24.875
	L10.186,24.875z M7.008,22.056c-0.916-1.249-1.544-2.896-1.55-4.491l0.314-1.268c0.109-0.455,0.122-0.878,0.128-1.278
	c0.013-0.522,0.02-1.012,0.314-1.409c0.211-0.689,7.873-0.705,7.944,0c0.294,0.397,0.301,0.884,0.314,1.409
	c0.006,0.4,0.019,0.823,0.128,1.278l0.314,1.268c-0.006,1.595-0.634,3.242-1.55,4.491c-0.891,1.217-2.057,2.044-3.178,2.044
	C9.065,24.1,7.905,23.273,7.008,22.056L7.008,22.056z M26.745,29.609l-0.955,1.773c-0.082,0.168-0.134,0.32-0.115,0.5l0.847,10.031
	c2.504-5.283,3.965-8.705,5.541-15.072c5.035,1.107,8.904,3.49,8.904,7.143l-0.006,10.477c0,1.732-1.41,3.148-3.146,3.148
	c-8.545,0-17.091,0-25.631,0c-1.736,0-3.146-1.416-3.146-3.148c0-3.49,0-6.984,0-10.477c0-3.652,3.863-6.035,8.898-7.143
	c1.595,6.438,3.069,9.865,5.625,15.252l0.858-10.211c0.013-0.18-0.026-0.332-0.115-0.5l-0.955-1.773
	c-0.058-0.104-0.071-0.221-0.006-0.328c0.058-0.105,0.16-0.166,0.282-0.166c0.948,0,1.896,0,2.852,0
	c0.115,0,0.223,0.061,0.281,0.166C26.815,29.389,26.804,29.506,26.745,29.609L26.745,29.609z M50.001,37.789v-6.736
	c0-4.236-8.207-5.781-14.178-4.621c2.568,0.992,5.215,2.654,6.215,5.336c0.262,0.711,0.391,1.457,0.391,2.217v5.496
	c1.961,0,3.92,0,5.875,0C49.237,39.48,50.001,38.721,50.001,37.789L50.001,37.789z M0,37.789c0,0.932,0.762,1.691,1.698,1.691
	c1.954,0,3.914,0,5.875,0v-5.496c0-0.756,0.128-1.502,0.391-2.213c1-2.682,3.645-4.348,6.214-5.34C8.213,25.271,0,26.816,0,31.053
	C0,33.299,0,35.545,0,37.789L0,37.789z M20.115,19.539c1.377,1.88,3.171,3.158,4.907,3.158c1.73,0,3.523-1.278,4.908-3.158
	c1.414-1.928,2.375-4.475,2.395-6.938l-0.486-1.957c-0.174-0.698-0.186-1.348-0.199-1.973c-0.02-0.81-0.031-1.563-0.48-2.181
	c-0.717-0.986-1.844-0.666-3.178-0.288c-0.902,0.256-1.889,0.538-2.959,0.538c-1.07,0-2.05-0.282-2.959-0.538l0,0
	c-1.333-0.378-2.467-0.698-3.184,0.288c-0.442,0.618-0.461,1.371-0.474,2.181c-0.013,0.625-0.032,1.275-0.205,1.973l-0.48,1.957
	C17.732,15.064,18.693,17.61,20.115,19.539z"/>
</svg>
