<?xml version="1.0" encoding="utf-8"?>
<!-- Generator: Adobe Illustrator 15.1.0, SVG Export Plug-In  -->
<!DOCTYPE svg PUBLIC "-//W3C//DTD SVG 1.1//EN" "http://www.w3.org/Graphics/SVG/1.1/DTD/svg11.dtd" [
	<!ENTITY ns_flows "http://ns.adobe.com/Flows/1.0/">
]>
<svg x="0px" y="0px" width="50px" height="50px" viewBox="0.001 -8.572 50 50" enable-background="new 0.001 -8.572 50 50"
	 xml:space="preserve">
<defs>
</defs>
<path d="M3.785,32.856h15.454v-1.371H2.838c-0.278,0-0.507-0.229-0.507-0.504v-0.087
	c0-0.278,0.229-0.504,0.507-0.504h16.401v-1.37H2.838c-0.278,0-0.507-0.229-0.507-0.511v-0.121c0-0.282,0.229-0.511,0.507-0.511
	h16.401v-3.594H3.601c-0.698,0-1.27-0.57-1.27-1.27c0-6.049,0-12.098,0-18.15c0-0.699,0.571-1.27,1.27-1.27h15.639V0H3.785
	C1.703,0,0,1.7,0,3.782v25.291C0,31.159,1.703,32.856,3.785,32.856L3.785,32.856z M20.955,32.856h8.092v-1.861v-0.014v-0.087V30.88
	v-2.358v-0.013v-0.121v-0.013v-4.092v-0.688v-3.006l0,0V7.289l0,0V4.286V3.594V0h-8.092v3.594v0.692v3.003l0,0v13.301v3.006v0.688
	v4.092v0.013v0.121v0.013v2.358v0.014v0.087v0.014V32.856L20.955,32.856z M30.767,32.856h15.45c2.085,0,3.785-1.697,3.785-3.783
	V3.782C50.002,1.7,48.302,0,46.217,0h-15.45v3.594h15.638c0.699,0,1.27,0.571,1.27,1.27c0,6.052,0,12.102,0,18.15
	c0,0.699-0.57,1.27-1.27,1.27H30.767v3.594h16.397c0.281,0,0.51,0.229,0.51,0.511v0.121c0,0.282-0.229,0.511-0.51,0.511H30.767v1.37
	h16.397c0.281,0,0.51,0.226,0.51,0.504v0.087c0,0.275-0.229,0.504-0.51,0.504H30.767V32.856L30.767,32.856z M19.239,5.649v3.842
	c-0.688,1.283-1.089,2.808-1.089,4.447c0,1.64,0.4,3.164,1.089,4.446v3.846c-1.972-1.984-3.225-4.96-3.225-8.292
	C16.015,10.61,17.268,7.631,19.239,5.649L19.239,5.649z M30.767,18.385c0.685-1.282,1.084-2.807,1.084-4.446
	c0-1.639-0.399-3.164-1.084-4.447V5.649c1.968,1.982,3.221,4.961,3.221,8.29c0,3.332-1.253,6.308-3.221,8.292V18.385L30.767,18.385z
	 M43.287,11.917c1.173,0,2.123,0.927,2.123,2.076c0,1.148-0.95,2.076-2.123,2.076c-1.172,0-2.122-0.928-2.122-2.076
	C41.165,12.844,42.115,11.917,43.287,11.917L43.287,11.917z M40.285,21.819h5.407c0.282,0,0.507,0.229,0.507,0.504v0.672
	c0,0.281-0.225,0.51-0.507,0.51h-5.407c-0.279,0-0.504-0.229-0.504-0.51v-0.672C39.781,22.047,40.006,21.819,40.285,21.819
	L40.285,21.819z M40.285,4.467h5.407c0.282,0,0.507,0.225,0.507,0.504v0.671c0,0.279-0.225,0.511-0.507,0.511h-5.407
	c-0.279,0-0.504-0.232-0.504-0.511V4.971C39.781,4.692,40.006,4.467,40.285,4.467L40.285,4.467z M20.955,20.589L20.955,20.589
	L20.955,20.589z M6.714,11.917c1.173,0,2.123,0.927,2.123,2.076c0,1.148-0.95,2.076-2.123,2.076c-1.172,0-2.119-0.928-2.119-2.076
	C4.595,12.844,5.542,11.917,6.714,11.917L6.714,11.917z M9.717,21.819c0.279,0,0.507,0.229,0.507,0.504v0.672
	c0,0.281-0.228,0.51-0.507,0.51H4.313c-0.282,0-0.511-0.229-0.511-0.51v-0.672c0-0.275,0.229-0.504,0.511-0.504H9.717L9.717,21.819z
	 M9.717,4.467c0.279,0,0.507,0.225,0.507,0.504v0.671c0,0.279-0.228,0.511-0.507,0.511H4.313c-0.282,0-0.511-0.232-0.511-0.511
	V4.971c0-0.279,0.229-0.504,0.511-0.504H9.717z"/>
</svg>
