<?xml version="1.0" encoding="utf-8"?>
<!-- Generator: Adobe Illustrator 15.1.0, SVG Export Plug-In  -->
<!DOCTYPE svg PUBLIC "-//W3C//DTD SVG 1.1//EN" "http://www.w3.org/Graphics/SVG/1.1/DTD/svg11.dtd" [
	<!ENTITY ns_flows "http://ns.adobe.com/Flows/1.0/">
]>
<svg version="1.1" x="0px" y="0px" width="50px" height="50px" viewBox="0 -7.138 50 50" enable-background="new 0 -7.138 50 50"
	 xml:space="preserve">
<defs>
</defs>
<path fill-rule="evenodd" clip-rule="evenodd" d="M42.436,27.901c5.416-6.111,5.416-15.338,0-21.449
	c-0.369-0.417-0.349-1.045,0.043-1.439l0.991-0.991c0.21-0.213,0.472-0.315,0.772-0.307c0.299,0.008,0.555,0.125,0.756,0.349
	c6.668,7.455,6.668,18.769,0,26.226c-0.201,0.223-0.457,0.34-0.756,0.348c-0.301,0.01-0.563-0.094-0.772-0.307l-0.991-0.99
	C42.087,28.946,42.067,28.315,42.436,27.901L42.436,27.901z M38.051,23.565c-0.346,0.42-0.318,1.027,0.066,1.414l0.992,0.99
	c0.215,0.219,0.482,0.32,0.787,0.311c0.307-0.016,0.563-0.141,0.76-0.373c4.253-5.029,4.253-12.432,0-17.461
	c-0.197-0.233-0.453-0.358-0.76-0.372c-0.305-0.011-0.572,0.091-0.787,0.307l-0.992,0.994c-0.385,0.383-0.412,0.994-0.066,1.414
	C41.112,14.488,41.112,19.868,38.051,23.565z"/>
<path fill-rule="evenodd" clip-rule="evenodd" d="M7.561,27.901c-5.414-6.111-5.414-15.338,0-21.449
	c0.371-0.417,0.352-1.045-0.042-1.439l-0.99-0.991C6.317,3.808,6.055,3.706,5.754,3.714C5.455,3.723,5.201,3.839,5,4.063
	c-6.667,7.455-6.667,18.769,0,26.226c0.2,0.223,0.454,0.34,0.754,0.348c0.301,0.01,0.563-0.094,0.774-0.307l0.99-0.99
	C7.913,28.946,7.931,28.315,7.561,27.901L7.561,27.901z M11.946,23.565c0.348,0.42,0.319,1.027-0.066,1.414l-0.99,0.99
	c-0.217,0.219-0.484,0.32-0.79,0.311c-0.305-0.016-0.563-0.141-0.76-0.373c-4.255-5.029-4.255-12.432,0-17.461
	c0.197-0.233,0.455-0.358,0.76-0.372c0.305-0.011,0.572,0.091,0.79,0.307l0.99,0.994c0.386,0.383,0.415,0.994,0.066,1.414
	C8.885,14.488,8.885,19.868,11.946,23.565z"/>
<path fill-rule="evenodd" clip-rule="evenodd" d="M31.69,5.64H18.523v22.304H31.69V5.64L31.69,5.64z M33.483,35.723H16.73
	c-1.36,0-2.469-1.109-2.469-2.473V2.471C14.261,1.11,15.37,0,16.73,0h16.753c1.361,0,2.471,1.11,2.471,2.471v30.78
	C35.954,34.614,34.844,35.723,33.483,35.723L33.483,35.723z M17.272,3.138h15.669c0.691,0,1.254,0.56,1.254,1.252v24.806
	c0,0.689-0.563,1.252-1.254,1.252H17.272c-0.693,0-1.252-0.563-1.252-1.252V4.39C16.02,3.697,16.58,3.138,17.272,3.138L17.272,3.138
	z M26.006,31.792c-0.23-0.23-0.548-0.373-0.899-0.373c-0.351,0-0.67,0.143-0.898,0.373c-0.23,0.229-0.374,0.547-0.374,0.9
	c0,0.348,0.144,0.67,0.374,0.896c0.229,0.23,0.548,0.375,0.898,0.375c0.351,0,0.669-0.145,0.899-0.375
	c0.229-0.227,0.371-0.549,0.371-0.896C26.377,32.338,26.236,32.02,26.006,31.792z"/>
</svg>
