<?xml version="1.0" encoding="utf-8"?>
<!-- Generator: Adobe Illustrator 15.1.0, SVG Export Plug-In  -->
<!DOCTYPE svg PUBLIC "-//W3C//DTD SVG 1.1//EN" "http://www.w3.org/Graphics/SVG/1.1/DTD/svg11.dtd" [
	<!ENTITY ns_flows "http://ns.adobe.com/Flows/1.0/">
]>
<svg version="1.1"
	 x="0px" y="0px" width="50px" height="50px" viewBox="0 -0.259 50 50" enable-background="new 0 -0.259 50 50"
	 xml:space="preserve">
<defs>
</defs>
<path fill-rule="evenodd" clip-rule="evenodd" d="M14.402,39.46V27.88c0-2.121-1.732-3.851-3.854-3.851c-1.475,0-2.953,0-4.428,0
	c-2.125,0-3.855,1.729-3.855,3.851v11.58c0,2.121,1.73,3.854,3.855,3.854c1.475,0,2.953,0,4.428,0
	C12.67,43.314,14.402,41.581,14.402,39.46L14.402,39.46z M43.879,43.314c-1.475,0-2.949,0-4.428,0c-2.121,0-3.85-1.733-3.85-3.854
	V16.156c0-2.118,1.729-3.851,3.85-3.851c1.479,0,2.953,0,4.428,0c2.121,0,3.855,1.733,3.855,3.851V39.46
	C47.734,41.581,46,43.314,43.879,43.314L43.879,43.314z M27.213,43.314c-1.475,0-2.951,0-4.43,0c-2.117,0-3.852-1.733-3.852-3.854
	V3.851C18.932,1.733,20.666,0,22.783,0c1.479,0,2.955,0,4.43,0c2.127,0,3.855,1.733,3.855,3.851V39.46
	C31.068,41.581,29.34,43.314,27.213,43.314L27.213,43.314z M0,48.89v-2.328c0-0.326,0.268-0.589,0.596-0.589h48.809
	c0.328,0,0.596,0.263,0.596,0.589v2.328c0,0.326-0.268,0.593-0.596,0.593H0.596C0.268,49.482,0,49.216,0,48.89z"/>
</svg>
