<?xml version="1.0" encoding="utf-8"?>
<!-- Generator: Adobe Illustrator 15.1.0, SVG Export Plug-In  -->
<!DOCTYPE svg PUBLIC "-//W3C//DTD SVG 1.1//EN" "http://www.w3.org/Graphics/SVG/1.1/DTD/svg11.dtd" [
	<!ENTITY ns_flows "http://ns.adobe.com/Flows/1.0/">
]>
<svg version="1.1" x="0px" y="0px" width="50px" height="50px" viewBox="0 -9.992 50 50" enable-background="new 0 -9.992 50 50"
	 xml:space="preserve">
<defs>
</defs>
<path fill-rule="evenodd" clip-rule="evenodd" d="M33.391,2.896c0-1.593-1.305-2.896-2.9-2.896C21.293,0,12.097,0,2.899,0
	C1.304,0,0,1.304,0,2.896c0,4.407,0,8.808,0,13.214c0,1.594,1.304,2.896,2.899,2.896c9.197,0,18.394,0,27.591,0
	c1.596,0,2.9-1.303,2.9-2.896C33.391,11.704,33.391,7.303,33.391,2.896L33.391,2.896z M7.849,23.024
	c1.269,0,2.298,1.029,2.298,2.299c0,1.271-1.029,2.297-2.298,2.297s-2.298-1.025-2.298-2.297
	C5.551,24.054,6.581,23.024,7.849,23.024L7.849,23.024z M19.306,23.024c1.268,0,2.298,1.029,2.298,2.299
	c0,1.271-1.03,2.297-2.298,2.297c-1.271,0-2.298-1.025-2.298-2.297C17.008,24.054,18.034,23.024,19.306,23.024L19.306,23.024z
	 M42.035,23.024c1.269,0,2.298,1.029,2.298,2.299c0,1.271-1.029,2.297-2.298,2.297c-1.271,0-2.298-1.025-2.298-2.297
	C39.737,24.054,40.765,23.024,42.035,23.024L42.035,23.024z M47.307,24.541c-0.171-1.156-0.714-2.194-1.505-2.985
	c-0.964-0.965-2.294-1.561-3.764-1.561c-1.472,0-2.802,0.596-3.767,1.561c-0.79,0.791-1.333,1.835-1.501,2.997H24.574
	c-0.168-1.162-0.714-2.206-1.504-2.997c-0.183-0.183-0.375-0.348-0.581-0.504h12.884c0-3.702,0-7.41,0-11.114
	c0-1.596,1.301-2.896,2.896-2.896c2.345,0,4.693,0,7.038,0c1.664,0,2.439,1.48,3.062,3.023c1.806,4.46,1.635,9.312,1.622,14.034
	c0,0.244-0.2,0.442-0.448,0.442H47.307L47.307,24.541z M7.849,20.624c-2.593,0-4.696,2.105-4.696,4.695
	c0,2.594,2.103,4.696,4.696,4.696s4.696-2.103,4.696-4.696C12.545,22.729,10.442,20.624,7.849,20.624L7.849,20.624z M42.038,20.624
	c-2.593,0-4.695,2.104-4.695,4.695c0,2.594,2.103,4.696,4.695,4.696s4.693-2.103,4.693-4.696
	C46.731,22.728,44.631,20.624,42.038,20.624L42.038,20.624z M19.306,20.624c-2.596,0-4.696,2.105-4.696,4.695
	c0,2.594,2.1,4.696,4.696,4.696c2.593,0,4.696-2.103,4.696-4.696C24.001,22.729,21.898,20.624,19.306,20.624L19.306,20.624z
	 M2.401,24.553c-0.245,0-0.448-0.2-0.448-0.448v-2.607c0-0.242,0.201-0.445,0.448-0.445h2.266c-0.207,0.156-0.401,0.321-0.581,0.504
	c-0.793,0.791-1.336,1.835-1.504,2.997H2.401L2.401,24.553z M13.12,24.553c-0.171-1.162-0.714-2.206-1.507-2.997
	c-0.18-0.183-0.375-0.348-0.581-0.504h5.088c-0.204,0.156-0.398,0.321-0.581,0.504c-0.791,0.791-1.336,1.835-1.504,2.997H13.12
	L13.12,24.553z M40.473,8.813c-0.245,0-0.446,0.201-0.446,0.445c0,2.015,0,4.026,0,6.044c0,0.245,0.201,0.442,0.446,0.442
	c2.31,0,4.619-0.006,6.929-0.006c0.123,0,0.229-0.047,0.315-0.136c0.088-0.089,0.13-0.194,0.13-0.318
	c-0.036-1.646-0.393-3.1-0.991-4.69c-0.346-0.917-0.826-1.782-1.806-1.782C43.251,8.813,42.159,8.813,40.473,8.813z"/>
</svg>
