<?xml version="1.0" encoding="utf-8"?>
<!-- Generator: Adobe Illustrator 15.1.0, SVG Export Plug-In  -->
<!DOCTYPE svg PUBLIC "-//W3C//DTD SVG 1.1//EN" "http://www.w3.org/Graphics/SVG/1.1/DTD/svg11.dtd" [
	<!ENTITY ns_flows "http://ns.adobe.com/Flows/1.0/">
]>
<svg version="1.1"
	x="0px" y="0px" width="50px" height="50px" viewBox="-3.178 0 50 50" enable-background="new -3.178 0 50 50"
	 xml:space="preserve">
<defs>
</defs>
<path fill-rule="evenodd" clip-rule="evenodd" d="M26.678,49.571L15.78,33.291c-0.167-0.246-0.425-0.388-0.728-0.388
	c-0.3,0-0.558,0.142-0.725,0.388L3.43,49.571C2.379,51.137,0,48.031,0,46.145V3.43C0,1.541,1.541,0,3.43,0h23.248
	c1.878,0,3.41,1.525,3.426,3.4c-3.778,0.303-7.179,1.965-9.713,4.496c-2.809,2.811-4.545,6.697-4.545,10.988
	c0,4.287,1.737,8.176,4.545,10.984c2.534,2.526,5.935,4.192,9.713,4.5v11.777C30.104,48.031,27.728,51.142,26.678,49.571
	L26.678,49.571z M31.378,31.15c6.777,0,12.267-5.493,12.267-12.266c0-6.776-5.489-12.267-12.267-12.267
	c-6.772,0-12.262,5.49-12.262,12.267C19.116,25.657,24.605,31.15,31.378,31.15L31.378,31.15z M29.375,26.032
	c0,0.865,0.706,1.575,1.571,1.575h0.797c0.864,0,1.57-0.71,1.57-1.575v-5.319h5.217c0.865,0,1.567-0.71,1.567-1.575v-0.516
	c0-0.861-0.702-1.571-1.567-1.571h-5.217v-5.319c0-0.865-0.706-1.571-1.57-1.571h-0.797c-0.865,0-1.571,0.706-1.571,1.571v5.319
	H24.23c-0.865,0-1.571,0.706-1.571,1.571v0.516c0,0.865,0.706,1.575,1.571,1.575h5.145V26.032z"/>
</svg>
