<?xml version="1.0" encoding="utf-8"?>
<!-- Generator: Adobe Illustrator 15.1.0, SVG Export Plug-In  -->
<!DOCTYPE svg PUBLIC "-//W3C//DTD SVG 1.1//EN" "http://www.w3.org/Graphics/SVG/1.1/DTD/svg11.dtd" [
	<!ENTITY ns_flows "http://ns.adobe.com/Flows/1.0/">
]>
<svg version="1.1"
	x="0px" y="0px" width="50px" height="50px" viewBox="0.001 -1.283 50 50" enable-background="new 0.001 -1.283 50 50"
	 xml:space="preserve">
<defs>
</defs>
<path fill-rule="evenodd" clip-rule="evenodd" d="M44.558,34.877h-9.972c-3.023,0-3.023-8.939,0.008-8.939h10.417
	c0.814,0,1.511-0.115,2.28-0.373l1.496-0.511c0.289-0.099,0.583-0.058,0.83,0.122c0.251,0.175,0.385,0.441,0.385,0.746v5.959
	c0,0.719-0.385,1.332-1.032,1.648l-1.325,0.639C46.636,34.656,45.681,34.877,44.558,34.877L44.558,34.877z M49.876,15.707
	c0-1.976-1.606-4.706-4.352-4.717l-2.813-0.015l-1.642-4.755c-0.72-2.09-3.012-3.206-5.098-2.486L27.55,6.638l-4.485-5.239
	c-1.436-1.679-3.979-1.874-5.657-0.438l-10.874,9.32H4.097c-1.973,0-3.937,1.904-3.922,3.876l0.046,4.538
	C0.19,25.152,0,32.588,0,43.847c0,1.976,1.614,3.587,3.59,3.587c9.801,0,29.763,0,39.563,0c1.976,0,3.587-1.611,3.587-3.587v-7.618
	H33.512c-4.656,0-4.416-11.647,0.008-11.647h13.22v-7.607c0-1.98-1.611-3.586-3.587-3.586c-13.311,0-26.617,0-39.924,0
	c-0.255,0-0.465-0.209-0.465-0.465v-0.228c0-0.251,0.407-0.632,0.663-0.632h1.027l-1.043,0.895h5.811h0.905h12.512l14.414-4.973
	c0.808-0.278,1.687,0.152,1.965,0.956l1.386,4.017h2.992l-0.213-0.609h0.78c2.155,0,3.91,1.759,3.91,3.91v7.942l2.003-0.605V15.707
	L49.876,15.707z M10.744,12.436l9.236-7.919c0.647-0.552,1.622-0.472,2.178,0.167l2.517,2.943L18.732,9.68l2.611-2.239
	c0.259-0.221,0.289-0.613,0.068-0.868l-0.533-0.621c-0.221-0.259-0.608-0.289-0.868-0.064l-4.991,4.271
	c-0.247,0.213-0.285,0.579-0.099,0.834L10.744,12.436L10.744,12.436z M30.367,11.408l6.214-2.144
	c0.319-0.11,0.678,0.065,0.784,0.385l0.267,0.769c0.114,0.32-0.062,0.678-0.381,0.784l-5.087,1.755h-1.919l-0.259-0.766
	C29.872,11.873,30.048,11.522,30.367,11.408L30.367,11.408z M49.876,34.854l-2.003,0.789v8.928c0.617-0.647,2.003-1.789,2.003-2.745
	V34.854z"/>
</svg>
