<?xml version="1.0" encoding="utf-8"?>
<!-- Generator: Adobe Illustrator 15.1.0, SVG Export Plug-In  -->
<!DOCTYPE svg PUBLIC "-//W3C//DTD SVG 1.1//EN" "http://www.w3.org/Graphics/SVG/1.1/DTD/svg11.dtd" [
	<!ENTITY ns_flows "http://ns.adobe.com/Flows/1.0/">
]>
<svg version="1.1"
	 xmlns="http://www.w3.org/2000/svg" xmlns:xlink="http://www.w3.org/1999/xlink" xmlns:a="http://ns.adobe.com/AdobeSVGViewerExtensions/3.0/"
	 x="0px" y="0px" width="50px" height="50px" viewBox="0 -5.061 50 50" enable-background="new 0 -5.061 50 50"
	 xml:space="preserve">
<defs>
</defs>
<path fill-rule="evenodd" clip-rule="evenodd" d="M18.441,34.89c-0.406,0-0.797,0.082-1.148,0.227
	c-0.365,0.148-0.695,0.373-0.971,0.646l-0.002,0.004c-0.275,0.273-0.494,0.605-0.646,0.971c-0.145,0.352-0.227,0.736-0.227,1.146
	c0,0.406,0.082,0.795,0.227,1.146c0.143,0.348,0.35,0.662,0.605,0.928h0.002l0.041,0.043c0.543,0.543,1.293,0.877,2.119,0.877
	c0.408,0,0.793-0.082,1.146-0.227c0.348-0.143,0.662-0.35,0.93-0.605v-0.004l0.041-0.041c0.277-0.277,0.502-0.607,0.648-0.971
	c0.148-0.352,0.229-0.742,0.229-1.146c0-0.41-0.08-0.795-0.225-1.146c-0.15-0.365-0.375-0.697-0.648-0.971l-0.004-0.004
	c-0.273-0.273-0.605-0.498-0.971-0.646C19.234,34.972,18.849,34.89,18.441,34.89L18.441,34.89z M38.07,23.861
	c6.586,0,11.93-5.338,11.93-11.93C50,5.345,44.656,0,38.07,0c-6.59,0-11.932,5.345-11.932,11.931
	C26.139,18.523,31.48,23.861,38.07,23.861L38.07,23.861z M36.119,18.889v-5.178h-5.004c-0.846,0-1.533-0.687-1.533-1.528v-0.501
	c0-0.842,0.688-1.528,1.533-1.528h5.004V4.979c0-0.844,0.688-1.531,1.527-1.531h0.773c0.844,0,1.531,0.687,1.531,1.531v5.175h5.072
	c0.842,0,1.525,0.687,1.525,1.528v0.501c0,0.838-0.684,1.528-1.525,1.528h-5.072v5.178c0,0.838-0.691,1.528-1.531,1.528h-0.773
	C36.807,20.417,36.119,19.727,36.119,18.889L36.119,18.889z M38.561,25.941v2.238c0.121-0.076,0.236-0.152,0.35-0.23l0.008-0.006
	l0.006-0.008c0.232-0.217,0.451-0.424,0.652-0.633c0.205-0.207,0.391-0.41,0.555-0.623c0.166-0.215,0.318-0.441,0.453-0.691v-0.002
	c0.051-0.092,0.098-0.189,0.145-0.291c1.289-0.246,2.516-0.672,3.65-1.248l-0.537,1.639c-0.145,0.441-0.318,0.863-0.521,1.264
	c-0.209,0.406-0.445,0.795-0.707,1.156c-0.264,0.367-0.557,0.713-0.873,1.027c-0.314,0.316-0.654,0.609-1.018,0.871
	c-0.361,0.262-0.746,0.498-1.146,0.699c-0.398,0.201-0.816,0.371-1.246,0.51l-0.047,0.014c-0.412,0.131-0.838,0.232-1.273,0.295
	c-0.439,0.07-0.895,0.107-1.361,0.107h-20.52v-0.01l-0.145,0.01c-0.271,0.01-0.527,0.098-0.744,0.234
	c-0.236,0.145-0.436,0.346-0.564,0.563l0,0c-0.043,0.074-0.078,0.148-0.107,0.225c-0.025,0.078-0.041,0.158-0.047,0.23
	c-0.006,0.066-0.004,0.135,0.01,0.197v0.004c0.012,0.066,0.037,0.123,0.068,0.18c0.09,0.148,0.246,0.273,0.482,0.365l0,0
	c0.199,0.076,0.463,0.129,0.795,0.152c0.227,0.008,0.375,0.053,0.459,0.129c0.076,0.066,0.107,0.174,0.098,0.313
	c-0.006,0.088-0.041,0.176-0.09,0.27c-0.061,0.102-0.148,0.219-0.246,0.35c-0.18,0.236-0.42,0.564-0.617,0.979l0,0
	c-0.203,0.418-0.354,0.932-0.354,1.543l0,0v0.154l0,0v0.006v0.008l0.01,0.125v0.004l0.002,0.027l0,0l0.025,0.348l-0.344-0.051
	c-0.227-0.037-0.443-0.082-0.645-0.129c-0.211-0.055-0.414-0.113-0.605-0.18l-0.021-0.006h-0.004
	c-0.189-0.07-0.369-0.146-0.539-0.229c-0.184-0.084-0.355-0.182-0.52-0.283c-0.234-0.141-0.447-0.303-0.643-0.469
	c-0.195-0.174-0.373-0.355-0.529-0.555c-0.162-0.199-0.303-0.41-0.42-0.631l0,0c-0.119-0.223-0.221-0.457-0.297-0.699
	c-0.074-0.23-0.129-0.469-0.16-0.709c-0.035-0.242-0.047-0.488-0.041-0.738c0.006-0.242,0.035-0.49,0.082-0.742
	s0.117-0.506,0.205-0.754c0.061-0.18,0.133-0.355,0.215-0.533c0.078-0.172,0.172-0.35,0.273-0.523
	c0.078-0.137,0.166-0.279,0.266-0.424c0.098-0.143,0.197-0.281,0.301-0.42l0.049-0.057l-0.023-0.068
	c-0.213-0.629-0.412-1.248-0.604-1.854c-0.193-0.611-0.369-1.195-0.531-1.746c-0.166-0.566-0.334-1.146-0.494-1.721
	c-0.17-0.602-0.313-1.125-0.447-1.617l0,0c-0.387-1.408-0.734-2.655-1.109-3.768v-0.004c-0.379-1.111-0.785-2.086-1.299-2.943
	c-0.504-0.838-1.115-1.568-1.906-2.221c-0.793-0.646-1.764-1.213-2.984-1.721l0,0l-0.057-0.022
	c-0.268-0.113-0.504-0.271-0.699-0.463c-0.199-0.202-0.359-0.438-0.467-0.696c-0.104-0.246-0.16-0.511-0.164-0.781
	c-0.01-0.259,0.035-0.523,0.129-0.782l0.01-0.024V9.857l0.023-0.044l0.002-0.006c0.111-0.271,0.271-0.501,0.463-0.693l0,0
	C0.828,8.912,1.064,8.757,1.32,8.648c0.262-0.107,0.539-0.164,0.822-0.164c0.273,0,0.551,0.05,0.822,0.16v0.004
	c0.797,0.324,1.52,0.668,2.168,1.023c0.652,0.355,1.236,0.729,1.762,1.119c0.498,0.368,0.945,0.756,1.35,1.166
	c0.402,0.402,0.766,0.834,1.096,1.285l0.041,0.061h0.068h14.67c0.102,1.055,0.322,2.082,0.65,3.057h-0.008v5.381h3.297l0.1,0.102
	c1.021,1.023,2.203,1.891,3.504,2.555v4.574h1.416h2.57c0.234,0,0.465-0.018,0.691-0.041c0.125-0.014,0.248-0.033,0.371-0.057
	v-2.988c0.447,0.037,0.902,0.063,1.359,0.063C38.232,25.947,38.396,25.945,38.561,25.941L38.561,25.941z M29.813,23.589v5.381
	h-5.051v-5.381H29.813L29.813,23.589z M22.912,23.589h-5.051v5.381h5.051V23.589L22.912,23.589z M16.013,23.589H13.24
	c0.238,0.871,0.477,1.746,0.744,2.617c0.277,0.904,0.58,1.799,0.936,2.678l0.035,0.086h0.092h0.967V23.589L16.013,23.589z
	 M12.75,21.74h3.264v-5.381h-4.789h-0.205l0.076,0.191c0.367,0.918,0.684,1.848,0.971,2.777
	C12.308,20.125,12.531,20.931,12.75,21.74L12.75,21.74z M17.861,21.74h5.051v-5.381h-5.051V21.74L17.861,21.74z M21.595,34.179
	l10.393,0.002c0.154,0,0.289,0.086,0.357,0.225c0.066,0.145,0.051,0.303-0.047,0.422c-0.709,0.883-1.109,1.979-1.109,3.145
	c0,0.174,0.01,0.348,0.029,0.518h-8.856c0.018-0.17,0.025-0.344,0.025-0.518c0-1.141-0.408-2.256-1.105-3.15
	c-0.098-0.121-0.113-0.277-0.045-0.42C21.308,34.261,21.441,34.179,21.595,34.179L21.595,34.179z M40.1,34.181h-1.451
	c-0.223,0-0.375,0.031-0.463,0.102c-0.074,0.057-0.107,0.154-0.107,0.287c0,0.182,0.131,0.352,0.316,0.592v0.004l0.002,0.002
	c0.184,0.236,0.436,0.561,0.643,0.99l0,0c0.209,0.428,0.373,0.961,0.373,1.604l0,0l-0.004,0.111v0.002l-0.002,0.096v0.002
	l-0.008,0.104v0.004l-0.006,0.102v0.002l-0.035,0.307h0.311H40.1c0.293,0,0.572-0.057,0.824-0.164
	c0.262-0.107,0.502-0.268,0.701-0.467c0.197-0.197,0.357-0.436,0.465-0.699c0.107-0.252,0.164-0.529,0.164-0.826
	c0-0.289-0.057-0.57-0.164-0.822c-0.107-0.262-0.268-0.5-0.465-0.699c-0.199-0.199-0.439-0.359-0.701-0.469
	C40.672,34.242,40.393,34.181,40.1,34.181L40.1,34.181z M35.117,34.89c-0.41,0-0.797,0.082-1.148,0.227
	c-0.365,0.148-0.695,0.373-0.971,0.646l-0.002,0.004c-0.539,0.539-0.873,1.289-0.873,2.117c0,0.41,0.078,0.795,0.223,1.146
	c0.152,0.367,0.375,0.693,0.65,0.971l0.002,0.004c0.275,0.273,0.605,0.498,0.971,0.646c0.352,0.145,0.738,0.227,1.148,0.227
	c0.406,0,0.793-0.082,1.143-0.227c0.367-0.148,0.697-0.373,0.971-0.646l0.004-0.004c0.277-0.277,0.498-0.604,0.648-0.971
	c0.146-0.352,0.229-0.74,0.229-1.146c0-0.41-0.082-0.795-0.229-1.146c-0.15-0.365-0.371-0.697-0.648-0.971v-0.004
	c-0.277-0.273-0.607-0.498-0.971-0.646C35.91,34.972,35.523,34.89,35.117,34.89z"/>
</svg>
