<?xml version="1.0" encoding="utf-8"?>
<!-- Generator: Adobe Illustrator 15.1.0, SVG Export Plug-In  -->
<!DOCTYPE svg PUBLIC "-//W3C//DTD SVG 1.1//EN" "http://www.w3.org/Graphics/SVG/1.1/DTD/svg11.dtd" [
	<!ENTITY ns_flows "http://ns.adobe.com/Flows/1.0/">
]>
<svg version="1.1" x="0px" y="0px" width="50px" height="50px" viewBox="0 -4.832 50 50" enable-background="new 0 -4.832 50 50"
	 xml:space="preserve">
<defs>
</defs>
<path fill-rule="evenodd" clip-rule="evenodd" d="M37.881,0.748L37.881,0.748c-0.997-0.997-2.622-0.997-3.615,0L22.448,12.563
	c-0.994,0.997-0.994,2.621,0,3.612l0,0c0.997,0.997,2.622,0.997,3.615,0L37.881,4.36C38.875,3.367,38.875,1.738,37.881,0.748
	L37.881,0.748z M10.996,22.406v11.992c0,0.249,0.204,0.453,0.457,0.453h2.217c0.249,0,0.453-0.204,0.453-0.453V22.406
	c0-0.25-0.204-0.457-0.453-0.457h-2.217C11.2,21.949,10.996,22.156,10.996,22.406L10.996,22.406z M19.289,22.406v11.992
	c0,0.249,0.207,0.453,0.457,0.453h2.217c0.249,0,0.456-0.204,0.456-0.453V22.406c0-0.25-0.207-0.457-0.456-0.457h-2.217
	C19.496,21.949,19.289,22.156,19.289,22.406L19.289,22.406z M39,22.406v11.992c0,0.249-0.203,0.453-0.453,0.453h-2.217
	c-0.249,0-0.456-0.204-0.456-0.453V22.406c0-0.25,0.207-0.457,0.456-0.457h2.217C38.797,21.949,39,22.156,39,22.406L39,22.406z
	 M30.708,22.406v11.992c0,0.249-0.203,0.453-0.453,0.453h-2.217c-0.249,0-0.456-0.204-0.456-0.453V22.406
	c0-0.25,0.207-0.457,0.456-0.457h2.217C30.504,21.949,30.708,22.156,30.708,22.406L30.708,22.406z M45.627,36.793
	c-0.195,1.943-1.59,3.542-3.541,3.542H8.043c-1.948,0-3.327-1.605-3.538-3.542l-1.68-15.465C1.217,20.998,0,19.566,0,17.861
	c0-9.021,0,8.146,0-0.877c0-1.949,1.593-3.541,3.541-3.541H19.81c-0.062,0.307-0.094,0.615-0.094,0.926
	c0,1.162,0.44,2.33,1.327,3.211l0.003,0.003l0,0c0.883,0.884,2.049,1.33,3.211,1.33c1.159,0,2.327-0.446,3.211-1.33l0,0l4.137-4.14
	h14.854c1.947,0,3.541,1.592,3.541,3.541v0.877c0,1.699-1.211,3.13-2.816,3.463L45.627,36.793z"/>
</svg>
