<?xml version="1.0" encoding="utf-8"?>
<!-- Generator: Adobe Illustrator 15.1.0, SVG Export Plug-In  -->
<!DOCTYPE svg PUBLIC "-//W3C//DTD SVG 1.1//EN" "http://www.w3.org/Graphics/SVG/1.1/DTD/svg11.dtd" [
	<!ENTITY ns_flows "http://ns.adobe.com/Flows/1.0/">
]>
<svg version="1.1"
	 x="0px" y="0px" width="50px" height="50px" viewBox="-0.001 -4.479 50 50" enable-background="new -0.001 -4.479 50 50"
	 xml:space="preserve">
<defs>
</defs>
<path fill-rule="evenodd" clip-rule="evenodd" d="M38.525,9.229l1.525-2.313c0.052-0.076,0.112-0.127,0.193-0.163l6.814-3.12
	c0.188-0.085,0.401-0.037,0.535,0.12c0.135,0.157,0.146,0.374,0.033,0.548l-2.195,3.287l4.188,0.718
	c0.2,0.036,0.349,0.187,0.375,0.39c0.026,0.201-0.076,0.389-0.262,0.473l-6.922,3.169c-0.089,0.039-0.175,0.052-0.269,0.033
	l-3.061-0.536l-9.746,4.456l0.805,1.761c0.053,0.114,0.047,0.234-0.014,0.344c-0.063,0.111-0.165,0.181-0.29,0.193
	c-3.44,0.383-6.881,0.769-10.324,1.151c-0.197,0.024-0.382-0.079-0.466-0.259c-0.083-0.185-0.041-0.393,0.105-0.525
	c2.516-2.33,5.032-4.661,7.547-6.988c0.111-0.104,0.252-0.146,0.398-0.115c0.148,0.03,0.262,0.121,0.325,0.26l0.762,1.664
	L38.525,9.229L38.525,9.229z M19.223,10.511c-4.768,0-8.633,3.869-8.633,8.633c0,4.77,3.865,8.635,8.633,8.635
	c4.174,0,7.657-2.963,8.459-6.901l-4.656,0.521c-0.772,1.29-2.186,2.159-3.8,2.159c-2.438,0-4.419-1.981-4.419-4.424
	c0-2.439,1.98-4.417,4.419-4.417c0.582,0,1.137,0.108,1.644,0.313l3.242-3.003C22.722,11.075,21.037,10.511,19.223,10.511
	L19.223,10.511z M27.365,36.649c0.496,0.889,2.534,2.684,3.342,3.498c2.623,2.619,6.754-1.394,4.072-4.074l-2.619-2.62
	c3.865-3.516,6.293-8.587,6.293-14.226c0-1.55-0.186-3.055-0.53-4.498l-4.222,1.932c0.144,0.824,0.219,1.674,0.219,2.539
	c0,8.114-6.578,14.693-14.694,14.693c-8.114,0-14.692-6.579-14.692-14.693c0-8.113,6.578-14.693,14.692-14.693
	c4.844,0,9.141,2.347,11.816,5.959l4.178-1.912c-2.849-4.26-7.353-7.318-12.595-8.256C21.502,0.099,20.369,0,19.226,0
	C8.898,0,0,8.319,0,19.228c0,5.65,2.441,10.74,6.328,14.256l-2.59,2.59c-2.707,2.707,1.357,6.787,4.072,4.074
	c0.813-0.814,2.822-2.588,3.33-3.475c2.457,1.141,5.196,1.779,8.085,1.779C22.135,38.452,24.893,37.804,27.365,36.649z"/>
</svg>
