<?xml version="1.0" encoding="utf-8"?>
<!-- Generator: Adobe Illustrator 15.1.0, SVG Export Plug-In  -->
<!DOCTYPE svg PUBLIC "-//W3C//DTD SVG 1.1//EN" "http://www.w3.org/Graphics/SVG/1.1/DTD/svg11.dtd" [
	<!ENTITY ns_flows "http://ns.adobe.com/Flows/1.0/">
]>
<svg version="1.1"
x="0px" y="0px" width="50px" height="50px" viewBox="0 0 50 50" enable-background="new 0 0 50 50" xml:space="preserve">
<defs>
</defs>
<path fill-rule="evenodd" clip-rule="evenodd" d="M25.001,9.508c2.098,0,4.098,0.417,5.922,1.176
	c1.896,0.783,3.604,1.937,5.031,3.363c1.43,1.426,2.578,3.133,3.365,5.031c0.752,1.826,1.172,3.826,1.172,5.92
	c0,2.1-0.42,4.098-1.172,5.924c-0.787,1.898-1.936,3.604-3.365,5.031c-2.805,2.801-6.678,4.535-10.953,4.535
	c-2.097,0-4.098-0.418-5.924-1.174c-1.895-0.787-3.602-1.936-5.031-3.361c-1.426-1.428-2.578-3.133-3.361-5.031
	c-0.756-1.826-1.173-3.824-1.173-5.924c0-2.094,0.417-4.094,1.173-5.92c0.783-1.898,1.936-3.605,3.361-5.031
	c1.43-1.427,3.137-2.58,5.031-3.363C20.904,9.925,22.905,9.508,25.001,9.508L25.001,9.508z M36.474,9.723l1.867-3.238
	c0.633-1.098,0.256-2.5-0.842-3.137c-1.094-0.633-2.5-0.256-3.133,0.842l-1.871,3.238c-0.633,1.098-0.256,2.5,0.842,3.137
	C34.435,11.197,35.837,10.82,36.474,9.723L36.474,9.723z M42.572,17.504l3.238-1.871c1.098-0.633,1.475-2.038,0.842-3.133
	c-0.633-1.098-2.039-1.474-3.137-0.841l-3.238,1.87c-1.098,0.633-1.475,2.039-0.838,3.137
	C40.072,17.761,41.478,18.137,42.572,17.504L42.572,17.504z M40.277,36.469l3.238,1.871c1.098,0.633,2.504,0.256,3.137-0.842
	s0.256-2.5-0.842-3.137l-3.238-1.867c-1.094-0.635-2.5-0.26-3.133,0.842C38.802,34.43,39.179,35.836,40.277,36.469L40.277,36.469z
	 M32.496,42.571l1.871,3.238c0.633,1.1,2.039,1.475,3.133,0.842c1.098-0.635,1.475-2.037,0.842-3.137l-1.867-3.238
	c-0.637-1.098-2.039-1.475-3.137-0.842C32.24,40.071,31.863,41.473,32.496,42.571L32.496,42.571z M13.531,40.276l-1.868,3.238
	c-0.636,1.1-0.26,2.502,0.838,3.137c1.099,0.633,2.504,0.258,3.137-0.842l1.867-3.238c0.637-1.098,0.26-2.5-0.838-3.137
	C15.569,38.801,14.163,39.178,13.531,40.276L13.531,40.276z M7.429,32.495L4.19,34.362c-1.098,0.637-1.474,2.039-0.842,3.137
	c0.633,1.098,2.042,1.475,3.137,0.842l3.239-1.871c1.098-0.633,1.474-2.039,0.841-3.133C9.932,32.235,8.526,31.86,7.429,32.495
	L7.429,32.495z M9.724,13.529l-3.239-1.87C5.39,11.026,3.981,11.402,3.348,12.5C2.716,13.595,3.092,15,4.19,15.633l3.239,1.871
	c1.098,0.633,2.503,0.257,3.136-0.838C11.198,15.568,10.822,14.162,9.724,13.529L9.724,13.529z M17.504,7.428l-1.867-3.238
	c-0.633-1.098-2.038-1.475-3.137-0.842c-1.098,0.637-1.474,2.039-0.838,3.137l1.868,3.238c0.632,1.098,2.038,1.475,3.136,0.842
	C17.764,9.928,18.141,8.525,17.504,7.428L17.504,7.428z M6.037,22.703c1.266,0,2.295,1.03,2.295,2.295
	c0,1.268-1.029,2.295-2.295,2.295H2.295C1.029,27.293,0,26.266,0,24.999c0-1.266,1.029-2.295,2.295-2.295H6.037L6.037,22.703z
	 M22.707,43.963c0-1.266,1.026-2.295,2.295-2.295c1.266,0,2.295,1.029,2.295,2.295v3.742c0,1.266-1.029,2.295-2.295,2.295
	c-1.269,0-2.295-1.029-2.295-2.295V43.963L22.707,43.963z M43.966,27.293c-1.268,0-2.297-1.027-2.297-2.295
	c0-1.266,1.029-2.295,2.297-2.295h3.738c1.27,0,2.295,1.03,2.295,2.295c0,1.268-1.025,2.295-2.295,2.295H43.966L43.966,27.293z
	 M27.296,6.036c0,1.266-1.029,2.295-2.295,2.295c-1.269,0-2.295-1.029-2.295-2.295V2.295c0-1.27,1.026-2.295,2.295-2.295
	c1.266,0,2.295,1.025,2.295,2.295V6.036L27.296,6.036z M25.001,13.608c-6.293,0-11.393,5.1-11.393,11.39
	c0,6.293,5.1,11.393,11.393,11.393c6.291,0,11.393-5.1,11.393-11.393C36.394,18.708,31.292,13.608,25.001,13.608z"/>
</svg>
