<?xml version="1.0" encoding="utf-8"?>
<!-- Generator: Adobe Illustrator 15.1.0, SVG Export Plug-In  -->
<!DOCTYPE svg PUBLIC "-//W3C//DTD SVG 1.1//EN" "http://www.w3.org/Graphics/SVG/1.1/DTD/svg11.dtd" [
	<!ENTITY ns_flows "http://ns.adobe.com/Flows/1.0/">
]>
<svg version="1.1"
	 xmlns="http://www.w3.org/2000/svg" xmlns:xlink="http://www.w3.org/1999/xlink" xmlns:a="http://ns.adobe.com/AdobeSVGViewerExtensions/3.0/"
	 x="0px" y="0px" width="50px" height="50px" viewBox="0 -9.992 50 50" enable-background="new 0 -9.992 50 50"
	 xml:space="preserve">
<defs>
</defs>
<path fill-rule="evenodd" clip-rule="evenodd" d="M16.61,2.896c0,4.407,0,8.809,0,13.215c0,1.592,1.304,2.896,2.899,2.896
	c9.197,0,18.395,0,27.591,0c1.596,0,2.899-1.305,2.899-2.896c0-4.407,0-8.808,0-13.215C50,1.305,48.696,0,47.1,0
	c-9.196,0-18.394,0-27.591,0C17.914,0,16.61,1.305,16.61,2.896L16.61,2.896z M42.151,23.026c1.269,0,2.298,1.029,2.298,2.297
	c0,1.271-1.029,2.299-2.298,2.299s-2.298-1.027-2.298-2.299C39.853,24.055,40.882,23.026,42.151,23.026L42.151,23.026z
	 M30.695,23.026c1.271,0,2.298,1.029,2.298,2.297c0,1.271-1.027,2.299-2.298,2.299c-1.269,0-2.298-1.027-2.298-2.299
	C28.397,24.055,29.426,23.026,30.695,23.026L30.695,23.026z M7.964,23.026c1.271,0,2.298,1.029,2.298,2.297
	c0,1.271-1.026,2.299-2.298,2.299c-1.269,0-2.298-1.027-2.298-2.299C5.667,24.055,6.696,23.026,7.964,23.026L7.964,23.026z
	 M2.694,24.542H0.458c-0.248,0-0.448-0.197-0.448-0.443c-0.012-4.721-0.183-9.574,1.622-14.034C2.254,8.521,3.03,7.041,4.694,7.041
	c2.344,0,4.692,0,7.037,0c1.596,0,2.896,1.301,2.896,2.896c0,3.705,0,7.413,0,11.114h12.885c-0.207,0.156-0.398,0.322-0.581,0.506
	c-0.791,0.789-1.337,1.834-1.505,2.996H13.229c-0.168-1.162-0.711-2.207-1.501-2.996c-0.964-0.965-2.294-1.561-3.767-1.561
	c-1.469,0-2.799,0.596-3.764,1.561C3.407,22.346,2.865,23.385,2.694,24.542L2.694,24.542z M42.151,20.624
	c-2.593,0-4.696,2.107-4.696,4.697c0,2.592,2.104,4.695,4.696,4.695s4.696-2.104,4.696-4.695
	C46.847,22.731,44.744,20.624,42.151,20.624L42.151,20.624z M7.961,20.624c-2.593,0-4.693,2.104-4.693,4.697
	c0,2.592,2.101,4.695,4.693,4.695s4.695-2.104,4.695-4.695C12.657,22.727,10.554,20.624,7.961,20.624L7.961,20.624z M30.695,20.624
	c-2.593,0-4.696,2.107-4.696,4.697c0,2.592,2.104,4.695,4.696,4.695c2.596,0,4.695-2.104,4.695-4.695
	C35.39,22.731,33.291,20.624,30.695,20.624L30.695,20.624z M47.599,24.553h-0.18c-0.169-1.162-0.711-2.207-1.505-2.996
	c-0.18-0.184-0.374-0.35-0.581-0.506h2.266c0.247,0,0.448,0.205,0.448,0.445v2.607C48.047,24.352,47.843,24.553,47.599,24.553
	L47.599,24.553z M36.879,24.553h-0.914c-0.168-1.162-0.714-2.207-1.504-2.996c-0.184-0.184-0.378-0.35-0.581-0.506h5.088
	c-0.206,0.156-0.401,0.322-0.581,0.506C37.593,22.346,37.051,23.391,36.879,24.553L36.879,24.553z M4.95,8.814
	c-0.979,0-1.46,0.863-1.805,1.781c-0.6,1.59-0.956,3.044-0.991,4.689c0,0.125,0.041,0.23,0.13,0.318
	c0.086,0.089,0.191,0.137,0.315,0.137c2.31,0,4.619,0.006,6.929,0.006c0.244,0,0.445-0.198,0.445-0.443c0-2.018,0-4.029,0-6.043
	c0-0.245-0.201-0.445-0.445-0.445C7.84,8.814,6.749,8.814,4.95,8.814z"/>
</svg>
