<?xml version="1.0" encoding="utf-8"?>
<!-- Generator: Adobe Illustrator 15.1.0, SVG Export Plug-In  -->
<!DOCTYPE svg PUBLIC "-//W3C//DTD SVG 1.1//EN" "http://www.w3.org/Graphics/SVG/1.1/DTD/svg11.dtd" [
	<!ENTITY ns_flows "http://ns.adobe.com/Flows/1.0/">
]>
<svg version="1.1"
	 xmlns="http://www.w3.org/2000/svg" xmlns:xlink="http://www.w3.org/1999/xlink" xmlns:a="http://ns.adobe.com/AdobeSVGViewerExtensions/3.0/"
	 x="0px" y="0px" width="260px" viewBox="-48.812 -48.354 260 260" enable-background="new -48.812 -48.354 260 260"
	 xml:space="preserve">
<defs>
</defs>
<path fill-rule="evenodd" clip-rule="evenodd" d="M46.769,128.152v-37.61c0-6.883-5.628-12.506-12.516-12.506
	c-4.79,0-9.589,0-14.378,0c-6.903,0-12.516,5.623-12.516,12.506v37.61c0,6.884,5.613,12.517,12.516,12.517c4.79,0,9.589,0,14.378,0
	C41.141,140.669,46.769,135.036,46.769,128.152L46.769,128.152z M142.493,140.669c-4.785,0-9.57,0-14.374,0
	c-6.884,0-12.501-5.633-12.501-12.517V52.47c0-6.878,5.617-12.506,12.501-12.506c4.804,0,9.589,0,14.374,0
	c6.893,0,12.525,5.628,12.525,12.506v75.683C155.019,135.036,149.386,140.669,142.493,140.669L142.493,140.669z M88.37,140.669
	c-4.784,0-9.579,0-14.383,0c-6.873,0-12.506-5.633-12.506-12.517V12.506C61.481,5.633,67.114,0,73.987,0c4.804,0,9.599,0,14.383,0
	c6.902,0,12.525,5.633,12.525,12.506v115.646C100.896,135.036,95.272,140.669,88.37,140.669L88.37,140.669z M0,158.778v-7.569
	c0-1.06,0.863-1.907,1.932-1.907h158.514c1.069,0,1.932,0.848,1.932,1.907v7.569c0,1.054-0.862,1.921-1.932,1.921H1.932
	C0.863,160.699,0,159.832,0,158.778z"/>
</svg>
