<?xml version="1.0" encoding="utf-8"?>
<!-- Generator: Adobe Illustrator 15.1.0, SVG Export Plug-In  -->
<!DOCTYPE svg PUBLIC "-//W3C//DTD SVG 1.1//EN" "http://www.w3.org/Graphics/SVG/1.1/DTD/svg11.dtd" [
	<!ENTITY ns_flows "http://ns.adobe.com/Flows/1.0/">
]>
<svg version="1.1"
	 xmlns="http://www.w3.org/2000/svg" xmlns:xlink="http://www.w3.org/1999/xlink" xmlns:a="http://ns.adobe.com/AdobeSVGViewerExtensions/3.0/"
	 x="0px" y="0px" width="260px" viewBox="-51.638 -48.472 260 260" enable-background="new -51.638 -48.472 260 260"
	 xml:space="preserve">
<defs>
</defs>
<path fill-rule="evenodd" clip-rule="evenodd" d="M22.153,156.868c-4.988,5.128-13.33,5.076-18.355,0.042
	c-5.063-5.054-5.063-13.251,0-18.314c24.452-24.452,48.271-48.052,72.738-72.519c5.049-5.049,13.246-5.049,18.313,0
	c5.049,5.067,5.105,13.316,0,18.313c-7.279,7.112-14.866,14.648-22.589,22.356C53.853,125.126,39.326,139.695,22.153,156.868
	L22.153,156.868z M56.889,7.615l3.442,10.661c0.321,1.021,1.062,1.761,2.086,2.096l10.67,3.447c0.895,0.284,1.491,1.099,1.491,2.044
	c0,0.946-0.596,1.761-1.491,2.059l-10.67,3.433c-1.025,0.336-1.765,1.076-2.086,2.101l-3.442,10.671
	c-0.298,0.895-1.104,1.49-2.059,1.49c-0.959,0-1.765-0.596-2.049-1.49l-3.447-10.671c-0.335-1.024-1.071-1.765-2.096-2.101
	l-10.661-3.433c-0.908-0.298-1.504-1.112-1.504-2.059c0-0.945,0.596-1.76,1.504-2.044l10.661-3.447
	c1.025-0.335,1.761-1.062,2.096-2.086l3.447-10.671c0.284-0.908,1.09-1.505,2.049-1.505C55.786,6.11,56.591,6.707,56.889,7.615
	L56.889,7.615z M134.997,88.149l4.793,14.867c0.467,1.439,1.486,2.459,2.93,2.925l14.867,4.807c1.268,0.4,2.087,1.528,2.087,2.865
	c0,1.317-0.819,2.444-2.087,2.846l-14.867,4.807c-1.443,0.466-2.463,1.504-2.93,2.925l-4.793,14.871
	c-0.414,1.268-1.541,2.082-2.859,2.082c-1.336,0-2.463-0.814-2.864-2.082l-4.802-14.871c-0.471-1.421-1.49-2.459-2.93-2.925
	l-14.871-4.807c-1.268-0.401-2.082-1.528-2.082-2.846c0-1.337,0.814-2.465,2.082-2.865l14.871-4.807
	c1.439-0.466,2.459-1.485,2.93-2.91l4.802-14.882c0.401-1.257,1.528-2.086,2.864-2.086
	C133.456,86.063,134.583,86.893,134.997,88.149L134.997,88.149z M125.477,2.874C124.909,1.141,123.344,0,121.5,0
	c-1.825,0-3.391,1.141-3.959,2.874l-6.646,20.619c-0.647,1.983-2.072,3.409-4.057,4.057l-20.614,6.642
	c-1.737,0.568-2.879,2.138-2.879,3.964c0,1.84,1.142,3.404,2.879,3.964l20.614,6.669c1.984,0.634,3.409,2.059,4.057,4.043
	l6.646,20.605c0.568,1.746,2.134,2.901,3.959,2.901c1.845,0,3.409-1.155,3.978-2.901l6.66-20.605
	c0.634-1.984,2.059-3.409,4.039-4.057l20.604-6.655c1.747-0.56,2.893-2.124,2.893-3.964c0-1.826-1.146-3.396-2.893-3.964
	l-20.604-6.655c-1.994-0.634-3.405-2.06-4.058-4.043L125.477,2.874z"/>
</svg>
