<?xml version="1.0" encoding="utf-8"?>
<!-- Generator: Adobe Illustrator 15.1.0, SVG Export Plug-In  -->
<!DOCTYPE svg PUBLIC "-//W3C//DTD SVG 1.1//EN" "http://www.w3.org/Graphics/SVG/1.1/DTD/svg11.dtd" [
	<!ENTITY ns_flows "http://ns.adobe.com/Flows/1.0/">
]>
<svg version="1.1"
	 xmlns="http://www.w3.org/2000/svg" xmlns:xlink="http://www.w3.org/1999/xlink" xmlns:a="http://ns.adobe.com/AdobeSVGViewerExtensions/3.0/"
	 x="0px" y="0px" viewBox="-1 -1 56 44" enable-background="new -1 -1 56 44" xml:space="preserve">
<defs>
</defs>
<path fill="#0176BC" d="M49,0H5C2.243,0,0,2.243,0,5v32c0,2.757,2.243,5,5,5h44c2.755,0,5-2.243,5-5V5C54,2.243,51.756,0,49,0z
	 M52,37c0,1.654-1.346,3-3,3H5c-1.654,0-3-1.346-3-3V5c0-1.654,1.346-3,3-3h44c1.654,0,3,1.346,3,3V37z"/>
<path fill="#0176BC" d="M48.346,4.243L29.374,20.629c-1.287,1.111-3.46,1.11-4.748,0L5.653,4.243
	c-0.416-0.359-1.048-0.316-1.41,0.103c-0.361,0.418-0.314,1.05,0.104,1.411l18.973,16.386c1.015,0.877,2.348,1.314,3.681,1.314
	s2.667-0.438,3.68-1.314L49.653,5.757c0.417-0.361,0.464-0.993,0.104-1.411C49.393,3.927,48.762,3.884,48.346,4.243z"/>
</svg>
