<svg version="1.1"
	 xmlns="http://www.w3.org/2000/svg" xmlns:xlink="http://www.w3.org/1999/xlink" xmlns:a="http://ns.adobe.com/AdobeSVGViewerExtensions/3.0/"
	 x="0px" y="0px" width="43px" viewBox="-2.862 -3.632 43 49" enable-background="new -2.862 -3.632 43 49"
	 xml:space="preserve">
<defs>
</defs>
<path fill-rule="evenodd" clip-rule="evenodd" fill="#0177bc5e" d="M11.281,10.814h2.114V4.469h-1.331
	c-0.005,1.63-0.005,3.255,0.014,4.885c-0.79-1.651-1.621-3.258-2.458-4.885H7.505v6.345c0.442,0,0.889,0,1.334,0
	C8.843,9.192,8.841,7.572,8.823,5.95C9.599,7.623,10.428,9.185,11.281,10.814L11.281,10.814z M34.531,3.161v27.925h-3.087
	c-0.188,0-0.37,0.04-0.536,0.108c-0.173,0.071-0.327,0.175-0.456,0.305s-0.234,0.284-0.308,0.456
	c-0.068,0.167-0.108,0.348-0.108,0.536v2.154l-0.619-0.435c-0.049-0.037-0.271-0.167-0.327-0.167
	c-0.114-0.037-0.24-0.059-0.36-0.059s-0.247,0.019-0.364,0.056c-0.117,0.034-0.231,0.089-0.333,0.16l-1.673,1.177l-1.664-1.171
	c-0.102-0.071-0.209-0.126-0.324-0.164c-0.114-0.037-0.24-0.059-0.36-0.059c-0.123,0-0.247,0.019-0.364,0.056
	c-0.117,0.034-0.231,0.089-0.333,0.16l-1.673,1.177l-1.759-1.232c-0.037-0.019-0.199-0.102-0.231-0.102
	c-0.112-0.037-0.24-0.059-0.36-0.059c-0.122,0-0.247,0.019-0.362,0.056c-0.117,0.034-0.229,0.089-0.334,0.16l-1.673,1.177
	l-1.761-1.232c-0.031-0.019-0.197-0.102-0.227-0.102c-0.114-0.037-0.24-0.059-0.361-0.059c-0.122,0-0.246,0.019-0.365,0.056
	c-0.116,0.034-0.228,0.089-0.332,0.16l-1.673,1.177l-1.761-1.232c-0.034-0.019-0.197-0.102-0.228-0.102
	c-0.114-0.037-0.239-0.059-0.36-0.059c-0.124,0-0.247,0.019-0.364,0.056c-0.117,0.034-0.229,0.089-0.331,0.16l-1.675,1.177
	l-1.166-0.82V3.161c0-0.157-0.012-0.319-0.039-0.485C6.269,2.581,6.249,2.485,6.224,2.388h27.531c0.034,0,0.296,0.029,0.296,0.057
	c0.092,0.04,0.182,0.099,0.252,0.169c0.025,0.023,0.167,0.251,0.167,0.251C34.506,2.953,34.531,3.055,34.531,3.161L34.531,3.161z
	 M3.938,35.175c0,0.099,0.011,0.191,0.032,0.28c0.006,0,0.101,0.244,0.101,0.268c0.011,0.022,0.158,0.237,0.158,0.237
	c0.062,0.071,0.133,0.133,0.214,0.191l2.358,1.658c0.102,0.071,0.217,0.126,0.333,0.16c0.119,0.037,0.24,0.053,0.363,0.053
	c0.125,0,0.247-0.019,0.361-0.059c0.117-0.037,0.228-0.093,0.328-0.164l1.659-1.167l1.673,1.177c0.104,0.071,0.217,0.126,0.333,0.16
	c0.121,0.037,0.241,0.053,0.365,0.053c0.125,0,0.247-0.019,0.362-0.059c0.115-0.037,0.226-0.093,0.325-0.164l1.661-1.167
	l1.675,1.177c0.102,0.071,0.214,0.126,0.331,0.16c0.126,0.04,0.256,0.059,0.387,0.053l-0.958,0.751l-1.368-1.072
	c-0.032-0.024-0.342-0.191-0.342-0.194c-0.125-0.046-0.262-0.068-0.395-0.068c-0.143-0.003-0.32,0.059-0.393,0.059
	c-0.122,0.043-0.24,0.108-0.35,0.191l-1.383,1.084L10.4,37.701c-0.031-0.024-0.342-0.191-0.342-0.194
	c-0.125-0.046-0.262-0.068-0.393-0.068c-0.145-0.003-0.322,0.059-0.393,0.059c-0.123,0.043-0.242,0.108-0.35,0.191L7.54,38.773
	l-1.368-1.072c-0.032-0.024-0.344-0.191-0.344-0.194c-0.125-0.046-0.262-0.068-0.393-0.068c-0.145-0.003-0.32,0.059-0.393,0.059
	C4.92,37.541,4.8,37.606,4.694,37.689l-1.383,1.084l-0.921-0.721V3.161c0-0.214,0.086-0.407,0.227-0.547
	c0.021-0.023,0.25-0.167,0.25-0.169c0.089-0.036,0.189-0.057,0.296-0.057c0.109,0,0.262,0.057,0.296,0.057
	c0.092,0.04,0.18,0.097,0.251,0.169c0.037,0.037,0.168,0.202,0.168,0.251c0.011,0.026,0.06,0.296,0.06,0.296L3.938,35.175
	L3.938,35.175z M18.135,37.439c0.132,0,0.262,0.021,0.382,0.068c0,0.003,0.311,0.169,0.344,0.194l1.368,1.072l1.035-0.81
	c-0.107-0.037-0.209-0.089-0.308-0.154l-1.673-1.177L18.135,37.439L18.135,37.439z M22.752,37.51
	c0.12,0.043,0.237,0.108,0.339,0.191l1.368,1.072l1.223-0.961l-0.006-0.003L24,36.632L22.752,37.51L22.752,37.51z M27.26,37.658
	l0.062,0.043l1.368,1.072l0.921-0.721v-0.795l-0.89-0.625L27.26,37.658L27.26,37.658z M0,3.161c0-0.427,0.086-0.835,0.242-1.209
	c0.008,0,0.592-0.93,0.686-1.026C1.498,0.354,2.289,0,3.161,0h30.593c0.425,0,0.835,0.086,1.208,0.242
	c0.191,0,0.875,0.533,1.026,0.684c0.435,0,0.927,1.79,0.927,2.235v2.761c0,8.36,0,16.711,0,25.075c0,1.682-0.052,1.898-0.894,2.674
	c-1.22,1.127-3.426,3.42-3.722,3.716c0,0-0.234,0.185-0.259,0.2l-0.049,1.038c0,0.185-0.04,0.364-0.117,0.521
	c0,0.086-0.265,0.36-0.339,0.419l-2.095,1.642c-0.111,0.086-0.215,0.148-0.351,0.194c0,0.034-0.345,0.071-0.388,0.071
	c-0.136,0-0.265-0.019-0.395-0.062c-0.123-0.043-0.24-0.105-0.351-0.191l-1.38-1.081l-1.368,1.069
	c-0.111,0.086-0.209,0.148-0.345,0.194c0,0.034-0.352,0.071-0.395,0.071c-0.136,0-0.265-0.019-0.391-0.062
	c-0.121-0.043-0.244-0.105-0.349-0.191l-1.386-1.081l-1.362,1.069c-0.111,0.086-0.216,0.148-0.348,0.194
	c0,0.034-0.348,0.071-0.391,0.071c-0.136,0-0.265-0.019-0.395-0.062c-0.122-0.043-0.24-0.105-0.35-0.191l-1.382-1.081l-1.367,1.069
	c-0.111,0.086-0.212,0.148-0.345,0.194c0,0.034-0.351,0.071-0.393,0.071c-0.136,0-0.267-0.019-0.395-0.062
	c-0.122-0.043-0.24-0.105-0.348-0.191l-1.383-1.081l-1.363,1.069c-0.114,0.086-0.216,0.148-0.348,0.194
	c0,0.034-0.35,0.071-0.393,0.071c-0.135,0-0.263-0.019-0.394-0.062c-0.12-0.043-0.241-0.105-0.348-0.191l-1.384-1.081l-1.353,1.057
	c-0.111,0.092-0.222,0.16-0.357,0.207c0,0.034-0.351,0.071-0.393,0.071c-0.137,0-0.265-0.019-0.395-0.062
	c-0.122-0.043-0.242-0.105-0.35-0.191l-1.382-1.081l-1.365,1.069c-0.113,0.086-0.214,0.148-0.347,0.194
	c0,0.034-0.352,0.071-0.393,0.071c-0.137,0-0.265-0.019-0.393-0.062c-0.124-0.043-0.242-0.105-0.352-0.191
	c-0.573-0.45-2.158-1.479-2.446-2.058c-0.009,0.013-0.084-0.228-0.089-0.247c-0.015,0-0.035-0.24-0.035-0.265L0,3.161L0,3.161z
	 M9.317,12.489c-0.522,0-0.95,0.428-0.95,0.952v5.173c0,0.522,0.43,0.949,0.95,0.949h9.605c0.521,0,0.949-0.427,0.949-0.949v-5.173
	c0-0.523-0.427-0.952-0.949-0.952H9.317L9.317,12.489z M9.315,18.388h9.61v-1.277l-1.257-1.071c-0.285-0.24-0.693-0.267-1.009-0.063
	l-2.112,1.353c-0.307,0.197-0.7,0.179-0.983-0.045l-2.802-2.197c-0.299-0.234-0.72-0.24-1.026-0.015l-0.421,0.308V18.388
	L9.315,18.388z M9.34,28.477c-0.524,0-0.952,0.428-0.952,0.949l0,0c0,0.523,0.43,0.955,0.952,0.955H31.29
	c0.524,0,0.949-0.432,0.949-0.955l0,0c0-0.521-0.425-0.949-0.949-0.949H9.34L9.34,28.477z M9.34,23.04
	c-0.524,0-0.952,0.43-0.952,0.952l0,0c0,0.525,0.43,0.951,0.952,0.951H31.29c0.524,0,0.949-0.425,0.949-0.951l0,0
	c0-0.522-0.425-0.952-0.949-0.952H9.34L9.34,23.04z M23.251,17.607c-0.521,0-0.952,0.426-0.952,0.949l0,0
	c0,0.525,0.431,0.952,0.952,0.952h8.039c0.524,0,0.949-0.427,0.949-0.952l0,0c0-0.522-0.425-0.949-0.949-0.949H23.251L23.251,17.607
	z M23.251,12.489c-0.521,0-0.952,0.428-0.952,0.952l0,0c0,0.524,0.431,0.951,0.952,0.951h8.039c0.524,0,0.949-0.427,0.949-0.951l0,0
	c0-0.523-0.425-0.952-0.949-0.952H23.251L23.251,12.489z M15.524,5.615h3.058V4.469h-4.389v6.345h4.417V9.667h-3.085
	c0-0.53,0-1.059,0-1.587h2.901V7.054h-2.901C15.524,6.575,15.524,6.094,15.524,5.615L15.524,5.615z M20.118,4.469h-1.362
	l1.646,6.345h1.836c0.413-1.473,0.826-2.942,1.224-4.418c0.373,1.48,0.779,2.944,1.177,4.418h1.858l1.636-6.119l0.065-0.226h-1.374
	c-0.45,1.651-0.894,3.261-1.276,4.93c-0.425-1.65-0.875-3.286-1.325-4.93h-1.5c-0.459,1.644-0.921,3.276-1.359,4.926
	c-0.295-1.315-0.61-2.593-0.967-3.893C20.309,5.178,20.219,4.853,20.118,4.469L20.118,4.469z M28.785,7.76
	c0.169,0.128,0.397,0.202,0.681,0.265c1.05,0.229,3.044-0.222,2.606,1.351c-0.136,0.481-2.258,0.573-2.413,0.029
	c-0.04-0.154-0.055-0.465-0.064-0.711c-0.432,0-0.863,0-1.297,0c0.003,0.416-0.003,0.835,0.126,1.232
	c0.043,0.129,0.099,0.242,0.167,0.34c0.062,0.091,0.135,0.171,0.222,0.232c0.08,0.062,0.185,0.113,0.305,0.16
	c0.311,0.117,0.675,0.162,1.001,0.188c0.204,0.016,0.429,0.023,0.675,0.023c0.281,0,0.527-0.008,0.749-0.023
	c0.222-0.015,0.422-0.04,0.598-0.069c0.188-0.032,0.348-0.074,0.487-0.123c0.126-0.048,0.228-0.1,0.311-0.162
	c0.083-0.063,0.157-0.145,0.219-0.244c0.068-0.106,0.124-0.231,0.167-0.376c0.148-0.494,0.179-1.366,0.015-1.887
	c-0.283-0.926-1.648-0.956-2.542-0.976c-0.604-0.012-1.06,0.051-1.116-0.541c-0.006-0.074-0.006-0.146-0.006-0.219
	c0-0.071,0.003-0.139,0.012-0.199c0.009-0.068,0.025-0.128,0.043-0.18c0.188-0.475,1.991-0.456,2.151-0.1
	c0.006,0.017,0.019,0.039,0.028,0.066c0.015,0.051,0.031,0.108,0.043,0.177c0.028,0.14,0.031,0.284,0.046,0.425h0.074h1.143h0.083
	c-0.003-0.388,0.013-0.778-0.129-1.147c-0.092-0.254-0.237-0.425-0.419-0.542c-0.696-0.45-3.21-0.459-3.9,0.046
	c-0.08,0.06-0.154,0.131-0.209,0.212C28.215,5.58,28.141,7.279,28.785,7.76z"/>
</svg>
