<?xml version="1.0" encoding="utf-8"?>
<!-- Generator: Adobe Illustrator 15.1.0, SVG Export Plug-In  -->
<!DOCTYPE svg PUBLIC "-//W3C//DTD SVG 1.1//EN" "http://www.w3.org/Graphics/SVG/1.1/DTD/svg11.dtd" [
	<!ENTITY ns_flows "http://ns.adobe.com/Flows/1.0/">
]>
<svg version="1.1"
	 xmlns="http://www.w3.org/2000/svg" xmlns:xlink="http://www.w3.org/1999/xlink" xmlns:a="http://ns.adobe.com/AdobeSVGViewerExtensions/3.0/"
	 x="0px" y="0px" width="260px" height="260px" viewBox="-30.853 -50.65 260 260" enable-background="new -30.853 -50.65 260 260"
	 xml:space="preserve">
<defs>
</defs>
<path fill-rule="evenodd" clip-rule="evenodd" fill="#333333" d="M106.93,45c-6.854,11.037,1.898,18,8.043,29.09
	c-4.591,5.375-8.596,10.277-11.737,14.174l-1.982,0.023c-6.168,0.05-11.845,1.781-16.86,5.376c-4.266,3.058-7.599,7.097-10.4,11.495
	c-3.945,6.184-5.676,13.048-7.382,20.095c-2.081,8.551-3.511,17.279-13.542,19.025c-9.247,1.598-13.118,10.242-9.222,16.422
	c-14.022-4.049-26.383-14.598-34.5-28.627C-15.796,88.628,13.615,30.62,52.156,7.304C91.647-16.579,119.963,23.968,106.93,45
	L106.93,45z M56.052,150.724c-4.571,0.779-7.456,5.818-0.419,7.791l0,0c1.248,0.346,3.171,0.672,5.651,0.863
	c10.257,0.828,31.467-0.275,55.735-9.531c4.423-1.688,7.935-4.523,10.292-8.191c2.356-3.645,3.561-8.068,3.427-12.965l-0.157-5.662
	c15.874-12.623,66.568-54.964,67.688-76.021c0.266-4.991-1.588-9.212-4.848-11.964c-2.752-3.259-6.974-5.124-11.964-4.848
	c-21.042,1.12-63.334,51.721-75.949,67.58l-0.468,0.617l-4.981,0.044c-4.773,0-8.703,1.421-12.032,3.812
	c-3.176,2.273-5.75,5.4-8.023,8.961c-3.22,5.024-4.64,10.927-6.07,16.821C71.453,138.238,68.978,148.46,56.052,150.724
	L56.052,150.724z M108.325,105.04c-5.567,0-11.652-0.853-16.441,2.574c-2.417,1.731-4.458,4.231-6.322,7.142
	c-0.784,1.227-1.445,2.563-2.022,3.979c6.588,16.273,24.253,17.881,38.47,18.928c1.479-2.461,2.234-5.459,2.15-8.789l-0.227-8.211
	L108.325,105.04L108.325,105.04z M153.127,96.08l0.015-0.02l0.06-0.05l0.069-0.059l0.063-0.064l0.06-0.059l0.059-0.05l0.074-0.06
	l0.06-0.059l0.059-0.049l0.011-0.01l0.049-0.05l-20.791-20.791c-7.116,7.683-13.971,16.752-20.524,24.987l16.328,16.327
	C136.81,109.622,145.409,103.083,153.127,96.08L153.127,96.08z M84.24,15.441c-10.607-6.046-24.09-2.357-30.136,8.24
	c-6.051,10.593-2.357,24.095,8.235,30.131c10.607,6.036,24.1,2.357,30.136-8.235C98.521,34.97,94.833,21.492,84.24,15.441
	L84.24,15.441z M31.642,98.437c-4.761-2.718-10.822-1.056-13.539,3.693c-2.708,4.765-1.048,10.819,3.704,13.527
	c4.761,2.717,10.822,1.059,13.527-3.704C38.05,107.206,36.391,101.144,31.642,98.437L31.642,98.437z M44.064,58.675
	c-6.758-3.861-15.369-1.504-19.228,5.252c-3.861,6.756-1.492,15.367,5.267,19.228c6.756,3.846,15.366,1.488,19.228-5.268
	C53.177,71.132,50.82,62.521,44.064,58.675z"/>
</svg>
