<?xml version="1.0" encoding="utf-8"?>
<!-- Generator: Adobe Illustrator 15.1.0, SVG Export Plug-In  -->
<!DOCTYPE svg PUBLIC "-//W3C//DTD SVG 1.1//EN" "http://www.w3.org/Graphics/SVG/1.1/DTD/svg11.dtd" [
	<!ENTITY ns_flows "http://ns.adobe.com/Flows/1.0/">
]>
<svg version="1.1"
	 xmlns="http://www.w3.org/2000/svg" xmlns:xlink="http://www.w3.org/1999/xlink" xmlns:a="http://ns.adobe.com/AdobeSVGViewerExtensions/3.0/"
	 x="0px" y="0px" width="169px" height="213px" viewBox="-2.236 -2.812 169 213" enable-background="new -2.236 -2.812 169 213"
	 xml:space="preserve">
<defs>
</defs>
<path fill-rule="evenodd" clip-rule="evenodd" fill="#010101" d="M25.581,0h90.032h3.929l2.902,2.777l40.74,39.007l3.053,2.929
	v4.185v123.146c0,7.032-2.878,13.438-7.507,18.067l-0.025-0.012c-4.643,4.642-11.036,7.52-18.043,7.52H87.854v-19.77h52.808
	c1.602,0,3.053-0.65,4.092-1.677v-0.037c1.063-1.063,1.714-2.515,1.714-4.092V56.099l-35.172-2.946l-3.791-0.319l0.188-3.804
	l1.427-29.26H25.581c-1.589,0-3.04,0.657-4.098,1.714h-0.037c-1.032,1.032-1.677,2.483-1.677,4.092v99.947L0,149.722V25.575
	c0-7.007,2.884-13.4,7.532-18.049l-0.024-0.02C12.137,2.878,18.53,0,25.581,0L25.581,0z M37.08,86.354v8.627h89.193v-8.627H37.08
	L37.08,86.354z M37.08,63.594v8.633h89.193v-8.633H37.08L37.08,63.594z M37.08,40.32v8.634h56.499V40.32H37.08L37.08,40.32z
	 M72.039,110.759H32.476v48.422H12.688l39.569,48.422l39.564-48.422H72.039V110.759L72.039,110.759z M140.85,47.696l-24.073-23.047
	l-1.026,20.945L140.85,47.696z"/>
</svg>
