<?xml version="1.0" encoding="utf-8"?>
<!-- Generator: Adobe Illustrator 15.1.0, SVG Export Plug-In  -->
<!DOCTYPE svg PUBLIC "-//W3C//DTD SVG 1.1//EN" "http://www.w3.org/Graphics/SVG/1.1/DTD/svg11.dtd" [
	<!ENTITY ns_flows "http://ns.adobe.com/Flows/1.0/">
]>
<svg version="1.1"
	 xmlns="http://www.w3.org/2000/svg" xmlns:xlink="http://www.w3.org/1999/xlink" xmlns:a="http://ns.adobe.com/AdobeSVGViewerExtensions/3.0/"
	 x="0px" y="0px" width="260px" height="260px" viewBox="-58.928 -51.65 260 260" enable-background="new -58.928 -51.65 260 260"
	 xml:space="preserve">
<defs>
</defs>
<path fill-rule="evenodd" clip-rule="evenodd" fill="#333333" d="M109.427,51.263c-5.009-4.997-10.974-9.034-17.607-11.771
	c-6.39-2.654-13.398-4.104-20.749-4.104c-7.356,0-14.361,1.45-20.755,4.104c-6.629,2.736-12.601,6.773-17.604,11.771
	c-4.999,5.015-9.03,10.983-11.779,17.621c-2.646,6.373-4.108,13.394-4.108,20.744s1.462,14.357,4.108,20.741
	c2.749,6.634,6.78,12.613,11.779,17.618c5.003,4.997,10.975,9.026,17.604,11.776c6.394,2.641,13.399,4.104,20.755,4.104
	c7.35,0,14.359-1.464,20.749-4.104c6.634-2.75,12.599-6.779,17.607-11.776c5.004-5.005,9.037-10.984,11.783-17.618
	c2.646-6.384,4.104-13.391,4.104-20.741s-1.458-14.371-4.104-20.744C118.464,62.246,114.431,56.277,109.427,51.263L109.427,51.263z
	 M20.81,39.372C33.678,26.51,51.44,18.55,71.071,18.55c19.622,0,37.395,7.96,50.26,20.822
	c12.855,12.854,20.813,30.639,20.813,50.256c0,19.621-7.957,37.388-20.813,50.257c-12.865,12.869-30.639,20.814-50.26,20.814
	c-19.631,0-37.393-7.945-50.262-20.814C7.953,127.016,0,109.249,0,89.628C0,70.011,7.953,52.227,20.81,39.372z"/>
<path fill-rule="evenodd" clip-rule="evenodd" fill="#333333" d="M103.832,56.692c1.459,1.464,1.157,2.945,0,4.171l-33.31,35.102
	c-1.136,1.194-3.379-0.088-4.611-1.343c-1.253-1.233-2.544-3.48-1.338-4.618l35.106-33.312
	C100.894,55.548,102.37,55.246,103.832,56.692z"/>
<path fill-rule="evenodd" clip-rule="evenodd" fill="#333333" d="M63.196,16.47c6.375-1,12.794-0.872,19.173,0V5.486H63.196V16.47z"
	/>
<rect x="50.434" fill-rule="evenodd" clip-rule="evenodd" fill="#333333" width="44.694" height="9.951"/>
<path fill-rule="evenodd" clip-rule="evenodd" fill="#333333" d="M119.004,33.035c5.217,3.81,9.667,8.463,13.542,13.585l7.776-7.752
	l-13.536-13.581L119.004,33.035z"/>
<path fill-rule="evenodd" clip-rule="evenodd" fill="#333333" d="M38.452,86.24c1.774,0,3.22,1.449,3.22,3.214
	c0,1.783-1.446,3.226-3.22,3.226H22.147c-1.774,0-3.22-1.457-3.22-3.226c0-1.765,1.446-3.214,3.22-3.214H38.452L38.452,86.24z
	 M103.693,92.68c-1.773,0-3.229-1.457-3.229-3.226c0-1.765,1.455-3.214,3.229-3.214h16.301c1.777,0,3.225,1.449,3.225,3.214
	c0,1.769-1.447,3.226-3.225,3.226H103.693L103.693,92.68z M67.846,122.086c0-1.783,1.446-3.226,3.226-3.226
	c1.768,0,3.219,1.442,3.219,3.226v16.289c0,1.782-1.451,3.232-3.219,3.232c-1.771,0-3.226-1.45-3.226-3.232V122.086L67.846,122.086z
	 M74.291,56.841c0,1.775-1.445,3.226-3.219,3.226c-1.771,0-3.226-1.45-3.226-3.226V40.538c0-1.783,1.446-3.219,3.226-3.219
	c1.768,0,3.219,1.436,3.219,3.219V56.841z"/>
</svg>
