<?xml version="1.0" encoding="utf-8"?>
<!-- Generator: Adobe Illustrator 15.1.0, SVG Export Plug-In . SVG Version: 6.00 Build 0)  -->
<!DOCTYPE svg PUBLIC "-//W3C//DTD SVG 1.1//EN" "http://www.w3.org/Graphics/SVG/1.1/DTD/svg11.dtd">
<svg version="1.1" id="Layer_1" xmlns="http://www.w3.org/2000/svg" xmlns:xlink="http://www.w3.org/1999/xlink" x="0px" y="0px"
	 width="350px" height="350px" viewBox="0 0 350 350" enable-background="new 0 0 350 350" xml:space="preserve">
<path fill="#0176BC" d="M109.75,37.4h-9.035c0-15.642-14.683-28.365-32.734-28.365c-18.049,0-32.73,12.723-32.73,28.365h-9.035
	C26.214,16.78,44.949,0,67.98,0C91.013,0,109.75,16.78,109.75,37.4z"/>
<rect x="26.214" y="37.4" fill="#0176BC" width="9.035" height="151.786"/>
<polygon fill="#0176BC" points="109.75,189.186 100.715,190.909 100.715,37.4 109.75,37.4 "/>
<rect x="109.396" y="62.517" fill="#0176BC" width="24.032" height="9.032"/>
<rect x="109.396" y="97.676" fill="#0176BC" width="24.032" height="9.035"/>
<rect x="107.136" y="133.564" fill="#0176BC" width="26.293" height="9.035"/>
<path fill="#0176BC" d="M58.544,50.458c0-4.052,4.228-7.336,9.438-7.336l0,0c5.21,0,9.438,3.285,9.438,7.336v151.733
	c0,4.053-4.228,7.336-9.438,7.336l0,0c-5.211,0-9.438-3.283-9.438-7.336V50.458z"/>
<path fill="#0176BC" d="M105.128,238.592c0,20.516-16.632,37.146-37.147,37.146c-20.512,0-37.144-16.631-37.144-37.146
	c0-20.512,16.632-37.144,37.144-37.144C88.496,201.448,105.128,218.08,105.128,238.592z"/>
<path fill="#0176BC" d="M67.98,307.33C30.496,307.33,0,276.831,0,239.348c0-21.721,10.513-42.31,28.12-55.074l7.129,4.912
	c-15.271,11.07-26.214,31.328-26.214,50.162c0,32.504,26.443,58.947,58.945,58.947s58.949-26.443,58.949-58.947
	c0-17.358-12.959-37.203-26.215-48.438l9.035-2.709c15.283,12.956,26.214,31.131,26.214,51.146
	C135.964,276.831,105.465,307.33,67.98,307.33z"/>
<path fill="#0176BC" d="M43.966,237.941c0-11.955,9.692-21.647,21.646-21.647"/>
<path fill="#0176BC" d="M43.966,240.953c-1.663,0-3.011-1.348-3.011-3.012c0-13.599,11.061-24.658,24.655-24.658
	c1.666,0,3.015,1.346,3.015,3.011c0,1.666-1.349,3.015-3.015,3.015c-10.271,0-18.632,8.355-18.632,18.635
	C46.979,239.605,45.632,240.953,43.966,240.953z"/>
</svg>
