<?xml version="1.0" encoding="utf-8"?>
<!-- Generator: Adobe Illustrator 15.1.0, SVG Export Plug-In . SVG Version: 6.00 Build 0)  -->
<!DOCTYPE svg PUBLIC "-//W3C//DTD SVG 1.1//EN" "http://www.w3.org/Graphics/SVG/1.1/DTD/svg11.dtd">
<svg version="1.1" id="Layer_1" xmlns="http://www.w3.org/2000/svg" xmlns:xlink="http://www.w3.org/1999/xlink" x="0px" y="0px"
	 width="350px" height="350px" viewBox="0 0 350 350" enable-background="new 0 0 350 350" xml:space="preserve">
<path fill="#0176BC" d="M125.136,49.708c16.773,1.278,32.527,6.115,46.545,13.74l5.922-8.589l-5.44-3.722l-5.355-3.655l3.66-5.343
	l8.656-12.662l3.658-5.342l5.34,3.643l26.547,18.145l5.354,3.659l-3.655,5.339l-8.654,12.665l-3.66,5.352l-5.338-3.651l-5.166-3.533
	l-5.729,8.318c3.689,2.896,7.207,6.007,10.513,9.324c21.035,21.019,34.041,50.07,34.041,82.153
	c0,32.077-13.006,61.135-34.041,82.152c-21.019,21.029-50.07,34.042-82.152,34.042c-32.078,0-61.13-13.013-82.148-34.042
	C13.008,226.682,0,197.625,0,165.548c0-32.083,13.008-61.134,34.029-82.153C52.77,64.656,77.876,52.29,105.83,49.818V39.95H86.605
	h-6.492v-6.476V6.492V0h6.492h56.557h6.489v6.492v26.983v6.476h-6.489h-18.025V49.708L125.136,49.708z M29.524,208.544l8.868-5.122
	l6.1,10.564l-8.853,5.109c3.552,5.344,7.625,10.315,12.153,14.85c4.521,4.514,9.494,8.589,14.849,12.156l5.11-8.855l10.552,6.087
	l-5.11,8.872c11.237,5.579,23.701,9.046,36.886,9.872v-10.229h12.206v10.229c13.18-0.826,25.655-4.293,36.881-9.872l-5.111-8.872
	l10.564-6.087l5.116,8.855c5.338-3.567,10.308-7.644,14.841-12.156c4.52-4.533,8.594-9.506,12.163-14.85l-8.858-5.109l6.098-10.564
	l8.873,5.122c5.566-11.237,9.033-23.709,9.855-36.897h-10.224V159.45h10.224c-0.822-13.188-4.277-25.664-9.855-36.89l-8.873,5.116
	l-6.098-10.561l8.846-5.122c-3.557-5.339-7.631-10.309-12.149-14.83c-4.533-4.521-9.502-8.604-14.841-12.162l-5.116,8.858
	l-10.564-6.094l5.111-8.877c-11.226-5.579-23.701-9.046-36.881-9.867v10.226h-12.206V69.02c-13.186,0.821-25.648,4.288-36.886,9.867
	l5.11,8.877l-10.552,6.094L62.642,85c-5.354,3.558-10.329,7.642-14.849,12.162c-4.528,4.521-8.602,9.491-12.153,14.83l8.853,5.122
	l-6.1,10.561l-8.868-5.116c-5.587,11.237-9.049,23.703-9.876,36.89h10.229v12.197h-10.23
	C20.476,184.835,23.937,197.307,29.524,208.544L29.524,208.544z M116.635,190.689l12.476-3.558l-3.176-10.983
	c2.865-2.629,4.658-6.415,4.658-10.602c0-7.058-5.086-12.933-11.779-14.164l-18.492-64.208L87.848,90.72l18.509,64.282
	c-2.82,2.636-4.58,6.382-4.58,10.544c0,7.036,5.037,12.882,11.693,14.16L116.635,190.689L116.635,190.689z M202.013,52.958
	l-15.84-10.832l-1.354,1.976l15.855,10.832L202.013,52.958L202.013,52.958z M136.685,12.973H93.099v14.009h43.586V12.973z"/>
</svg>
