<?xml version="1.0" encoding="utf-8"?>
<!-- Generator: Adobe Illustrator 15.1.0, SVG Export Plug-In  -->
<!DOCTYPE svg PUBLIC "-//W3C//DTD SVG 1.1//EN" "http://www.w3.org/Graphics/SVG/1.1/DTD/svg11.dtd" [
	<!ENTITY ns_flows "http://ns.adobe.com/Flows/1.0/">
]>
<svg version="1.1"
	 xmlns="http://www.w3.org/2000/svg" xmlns:xlink="http://www.w3.org/1999/xlink" xmlns:a="http://ns.adobe.com/AdobeSVGViewerExtensions/3.0/"
	 x="0px" y="0px" width="260px" viewBox="-32.211 -49.191 260 260" enable-background="new -32.211 -49.191 260 260"
	 xml:space="preserve">
<defs>
</defs>
<path fill-rule="evenodd" clip-rule="evenodd" d="M122.023,27.965c6.173,0,12.065,1.234,17.436,3.457
	c5.575,2.32,10.596,5.703,14.793,9.9s7.596,9.222,9.9,14.797c2.223,5.383,3.457,11.263,3.457,17.436
	c0,6.155-1.234,12.048-3.457,17.418c-0.527,1.26-1.111,2.498-1.744,3.708c-3.111-1.708-6.469-3.013-10.024-3.84
	c-0.247-0.51-0.511-1.017-0.79-1.519c2.526-4.703,3.95-10.064,3.95-15.768c0-18.51-15.011-33.521-33.521-33.521
	c-12.023,0-22.558,6.337-28.479,15.854c-3.699-1.72-7.605-3.024-11.699-3.852c2.131-3.967,4.811-7.567,7.949-10.715
	c4.215-4.197,9.227-7.58,14.811-9.9C109.975,29.199,115.859,27.965,122.023,27.965L122.023,27.965z M31.508,160.7h111.896
	c17.398,0,31.496-14.098,31.496-31.508c0-16.267-12.313-29.648-28.134-31.319c-4.247-12.39-15.986-21.307-29.821-21.307
	c-3.11,0-6.123,0.453-8.957,1.305c-8.127-11.48-21.525-18.982-36.664-18.982c-22.851,0-41.705,17.068-44.527,39.137
	C11.633,100.297,0,113.395,0,129.192C0,146.59,14.105,160.7,31.508,160.7L31.508,160.7z M23.102,131.986
	c0,2.909-2.371,5.279-5.288,5.279c-2.901,0-5.271-2.37-5.271-5.279c0-7.58,2.782-14.53,7.374-19.875
	c4.666-5.424,11.221-9.201,18.624-10.309c2.88-0.411,5.556,1.568,5.976,4.453c0.406,2.88-1.58,5.547-4.449,5.967
	c-4.843,0.728-9.105,3.192-12.15,6.724C24.903,122.432,23.102,126.999,23.102,131.986L23.102,131.986z M147.458,102.988
	c2.79,0.814,4.374,3.749,3.567,6.53c-0.826,2.786-3.744,4.378-6.53,3.563c-0.913-0.259-1.855-0.478-2.814-0.604
	c-0.909-0.136-1.864-0.206-2.889-0.206c-2.193,0-4.271,0.333-6.173,0.959c-1.986,0.63-3.852,1.597-5.534,2.818h-0.017
	c-0.584,0.42-1.209,0.935-1.826,1.506c-0.598,0.552-1.145,1.124-1.654,1.712c-0.799,0.931-1.531,1.963-2.156,3.087h-0.018
	c-0.596,1.049-1.115,2.197-1.539,3.432c-0.93,2.744-3.949,4.222-6.698,3.275c-2.749-0.942-4.206-3.95-3.275-6.695
	c0.608-1.798,1.415-3.543,2.382-5.218v-0.024c0.935-1.646,2.054-3.214,3.321-4.695c0.79-0.934,1.642-1.822,2.51-2.617
	c0.84-0.777,1.774-1.53,2.798-2.279v-0.017c2.535-1.835,5.408-3.292,8.502-4.296c2.979-0.971,6.14-1.494,9.378-1.494
	c1.433,0,2.901,0.104,4.374,0.321C144.615,102.248,146.063,102.581,147.458,102.988L147.458,102.988z M55.375,85.22
	c2.834-2.831,6.217-5.103,9.961-6.657c3.598-1.494,7.568-2.309,11.766-2.309c2.908,0,5.271-2.366,5.271-5.271
	c0-2.922-2.362-5.283-5.271-5.283c-5.551,0-10.885,1.123-15.756,3.14c-5.063,2.095-9.621,5.168-13.424,8.97
	c-2.041,2.066-2.032,5.391,0.025,7.437C50.004,87.294,53.329,87.281,55.375,85.22L55.375,85.22z M155.774,28.603l5.51-9.518
	c1.864-3.242,0.753-7.365-2.474-9.233c-3.242-1.864-7.373-0.766-9.233,2.473l-5.501,9.518c-1.865,3.234-0.754,7.37,2.473,9.234
	C149.779,32.94,153.914,31.829,155.774,28.603L155.774,28.603z M173.728,51.502l9.526-5.501c3.227-1.864,4.337-6.004,2.473-9.234
	c-1.872-3.226-5.995-4.337-9.221-2.473l-9.531,5.51c-3.226,1.872-4.336,5.995-2.477,9.222
	C166.366,52.256,170.498,53.354,173.728,51.502L173.728,51.502z M165.601,96.639c2.617,1.795,5.013,3.877,7.114,6.234
	c2.86,3.177,5.21,6.839,6.934,10.818c2.404,0.086,4.782-1.136,6.078-3.37c1.864-3.227,0.754-7.37-2.473-9.234l-9.526-5.497
	C171.032,94.034,167.716,94.545,165.601,96.639L165.601,96.639z M77.089,39.804c3.226,1.872,4.337,5.995,2.46,9.222
	c-0.547,0.971-1.3,1.736-2.176,2.296c-1.979-0.227-4.004-0.346-6.049-0.346c-0.613,0-1.23,0.013-1.84,0.037l-8.683-5.012
	c-3.229-1.864-4.329-6.004-2.465-9.234c1.864-3.226,5.995-4.337,9.222-2.473L77.089,39.804L77.089,39.804z M99.977,21.842
	l-5.498-9.518c-1.868-3.238-5.996-4.337-9.226-2.473c-3.226,1.868-4.337,5.991-2.474,9.233l5.502,9.518
	c1.868,3.227,6.004,4.338,9.234,2.474C100.741,29.212,101.853,25.076,99.977,21.842L99.977,21.842z M177.822,80.295
	c-3.721,0-6.748-3.024-6.748-6.74c0-3.732,3.027-6.757,6.748-6.757h10.994c3.736,0,6.762,3.024,6.762,6.757
	c0,3.716-3.025,6.74-6.762,6.74H177.822L177.822,80.295z M128.78,17.756c0,3.716-3.024,6.749-6.757,6.749
	c-3.715,0-6.74-3.033-6.74-6.749V6.757c0-3.732,3.025-6.757,6.74-6.757c3.732,0,6.757,3.024,6.757,6.757V17.756z"/>
</svg>
